<svg width="120" height="22" viewBox="0 0 120 22" fill="none" xmlns="http://www.w3.org/2000/svg">
<path d="M14.544 14.712C14.576 14.712 14.592 14.76 14.592 14.856C14.592 14.952 14.576 15 14.544 15C14 15 13.568 14.992 13.248 14.976L11.472 14.952L9.504 14.976C9.168 14.992 8.712 15 8.136 15C8.104 15 8.088 14.952 8.088 14.856C8.088 14.76 8.104 14.712 8.136 14.712C8.696 14.712 9.096 14.672 9.336 14.592C9.592 14.512 9.76 14.36 9.84 14.136C9.936 13.912 9.984 13.552 9.984 13.056V8.112C8.88 8.768 7.696 9.096 6.432 9.096C5.024 9.096 3.88 8.744 3 8.04C2.12 7.336 1.68 6.392 1.68 5.208V1.944C1.68 1.464 1.64 1.112 1.56 0.888C1.496 0.663999 1.352 0.511999 1.128 0.431999C0.92 0.335999 0.584 0.287999 0.12 0.287999C0.072 0.287999 0.048 0.239999 0.048 0.144C0.048 0.0479999 0.072 0 0.12 0C0.36 0 0.544 0.0079999 0.672 0.0239997C1.12 0.0559993 1.848 0.0719991 2.856 0.0719991C3.672 0.0719991 4.432 0.0559993 5.136 0.0239997C5.344 0.0079999 5.608 0 5.928 0C5.96 0 5.976 0.0479999 5.976 0.144C5.976 0.239999 5.96 0.287999 5.928 0.287999C5.464 0.287999 5.12 0.335999 4.896 0.431999C4.688 0.527999 4.544 0.696 4.464 0.935999C4.384 1.16 4.344 1.512 4.344 1.992V4.368C4.344 5.728 4.576 6.76 5.04 7.464C5.52 8.168 6.232 8.52 7.176 8.52C8.104 8.52 9.04 8.256 9.984 7.728V1.992C9.984 1.512 9.944 1.16 9.864 0.935999C9.8 0.696 9.656 0.527999 9.432 0.431999C9.224 0.335999 8.888 0.287999 8.424 0.287999C8.376 0.287999 8.352 0.239999 8.352 0.144C8.352 0.0479999 8.376 0 8.424 0L9.648 0.0239997C10.384 0.0559993 10.992 0.0719991 11.472 0.0719991C11.92 0.0719991 12.512 0.0559993 13.248 0.0239997L14.544 0C14.576 0 14.592 0.0479999 14.592 0.144C14.592 0.239999 14.576 0.287999 14.544 0.287999C13.984 0.287999 13.576 0.335999 13.32 0.431999C13.064 0.511999 12.888 0.663999 12.792 0.888C12.696 1.112 12.648 1.464 12.648 1.944V13.056C12.648 13.536 12.696 13.896 12.792 14.136C12.888 14.36 13.064 14.512 13.32 14.592C13.576 14.672 13.984 14.712 14.544 14.712ZM18.8573 3.864C18.4413 3.864 18.1133 3.752 17.8733 3.528C17.6493 3.288 17.5373 2.96 17.5373 2.544C17.5373 2.16 17.6573 1.856 17.8973 1.632C18.1373 1.408 18.4573 1.296 18.8573 1.296C19.2573 1.296 19.5613 1.408 19.7693 1.632C19.9933 1.856 20.1053 2.16 20.1053 2.544C20.1053 2.96 19.9933 3.288 19.7693 3.528C19.5613 3.752 19.2573 3.864 18.8573 3.864ZM23.0333 3.864C22.6173 3.864 22.2973 3.752 22.0733 3.528C21.8493 3.288 21.7373 2.96 21.7373 2.544C21.7373 2.16 21.8493 1.864 22.0733 1.656C22.3133 1.432 22.6333 1.32 23.0333 1.32C23.4333 1.32 23.7373 1.432 23.9453 1.656C24.1693 1.864 24.2813 2.16 24.2813 2.544C24.2813 2.96 24.1693 3.288 23.9453 3.528C23.7373 3.752 23.4333 3.864 23.0333 3.864ZM24.5933 13.416C24.6253 13.416 24.6573 13.448 24.6893 13.512C24.7373 13.576 24.7453 13.624 24.7133 13.656C24.1213 14.232 23.5213 14.648 22.9133 14.904C22.3053 15.16 21.6413 15.288 20.9213 15.288C19.9133 15.288 19.0413 15.08 18.3053 14.664C17.5693 14.232 17.0093 13.664 16.6253 12.96C16.2413 12.24 16.0493 11.464 16.0493 10.632C16.0493 9.704 16.2813 8.848 16.7453 8.064C17.2093 7.28 17.8493 6.664 18.6653 6.216C19.4973 5.752 20.4333 5.52 21.4733 5.52C22.4653 5.52 23.2333 5.744 23.7773 6.192C24.3213 6.64 24.5933 7.336 24.5933 8.28C24.5933 8.776 24.5053 9.024 24.3293 9.024L18.4973 9.048C18.4813 9.16 18.4733 9.344 18.4733 9.6C18.4733 11.008 18.7933 12.112 19.4333 12.912C20.0893 13.712 21.0253 14.112 22.2413 14.112C22.6733 14.112 23.0413 14.064 23.3453 13.968C23.6493 13.872 24.0493 13.696 24.5453 13.44L24.5933 13.416ZM20.5613 6C20.0333 6 19.5933 6.232 19.2413 6.696C18.8893 7.144 18.6573 7.768 18.5453 8.568L22.0253 8.52C22.0093 7.704 21.8893 7.08 21.6653 6.648C21.4413 6.216 21.0733 6 20.5613 6ZM31.4085 15.312C30.6245 15.312 29.9365 15.224 29.3445 15.048V19.656C29.3445 20.136 29.3925 20.488 29.4885 20.712C29.6005 20.936 29.8005 21.088 30.0885 21.168C30.3925 21.264 30.8565 21.312 31.4805 21.312C31.5285 21.312 31.5525 21.36 31.5525 21.456C31.5525 21.552 31.5285 21.6 31.4805 21.6C30.8885 21.6 30.4245 21.592 30.0885 21.576L28.1925 21.552L26.7765 21.576C26.5365 21.592 26.2005 21.6 25.7685 21.6C25.7205 21.6 25.6965 21.552 25.6965 21.456C25.6965 21.36 25.7205 21.312 25.7685 21.312C26.1525 21.312 26.4325 21.264 26.6085 21.168C26.8005 21.088 26.9285 20.928 26.9925 20.688C27.0725 20.464 27.1125 20.12 27.1125 19.656V7.68C27.1125 7.008 26.9925 6.568 26.7525 6.36C26.5285 6.136 26.1205 6.024 25.5285 6.024C25.4965 6.024 25.4805 5.976 25.4805 5.88C25.4805 5.784 25.4965 5.736 25.5285 5.736H28.8165C29.0405 5.736 29.1845 5.776 29.2485 5.856C29.3125 5.936 29.3445 6.08 29.3445 6.288V6.984C30.4965 5.944 31.6805 5.424 32.8965 5.424C33.5685 5.424 34.1925 5.6 34.7685 5.952C35.3605 6.304 35.8325 6.816 36.1845 7.488C36.5365 8.16 36.7125 8.944 36.7125 9.84C36.7125 11.12 36.4485 12.176 35.9205 13.008C35.3925 13.824 34.7205 14.416 33.9045 14.784C33.1045 15.136 32.2725 15.312 31.4085 15.312ZM31.3125 6.768C30.5925 6.768 29.9365 7.024 29.3445 7.536V13.512C29.6965 13.912 30.0645 14.216 30.4485 14.424C30.8325 14.616 31.3045 14.712 31.8645 14.712C33.4805 14.712 34.2885 13.336 34.2885 10.584C34.2885 9.368 34.0005 8.432 33.4245 7.776C32.8645 7.104 32.1605 6.768 31.3125 6.768ZM49.5251 14.712C49.5571 14.712 49.5731 14.76 49.5731 14.856C49.5731 14.952 49.5571 15 49.5251 15C49.0771 15 48.7331 14.992 48.4931 14.976L47.1491 14.952L45.7331 14.976C45.4771 14.992 45.1251 15 44.6771 15C44.6291 15 44.6051 14.952 44.6051 14.856C44.6051 14.76 44.6291 14.712 44.6771 14.712C45.0611 14.712 45.3411 14.672 45.5171 14.592C45.7091 14.512 45.8371 14.36 45.9011 14.136C45.9651 13.896 45.9971 13.536 45.9971 13.056V10.656H41.7731V13.056C41.7731 13.536 41.8051 13.896 41.8691 14.136C41.9331 14.36 42.0531 14.512 42.2291 14.592C42.4051 14.672 42.6851 14.712 43.0691 14.712C43.1011 14.712 43.1171 14.76 43.1171 14.856C43.1171 14.952 43.1011 15 43.0691 15C42.6211 15 42.2771 14.992 42.0371 14.976L40.6931 14.952L39.3011 14.976C39.0451 14.992 38.6851 15 38.2211 15C38.1731 15 38.1491 14.952 38.1491 14.856C38.1491 14.76 38.1731 14.712 38.2211 14.712C38.6051 14.712 38.8851 14.672 39.0611 14.592C39.2531 14.512 39.3811 14.36 39.4451 14.136C39.5091 13.896 39.5411 13.536 39.5411 13.056V7.68C39.5411 7.2 39.5091 6.848 39.4451 6.624C39.3811 6.384 39.2531 6.224 39.0611 6.144C38.8851 6.064 38.6131 6.024 38.2451 6.024C38.1971 6.024 38.1731 5.976 38.1731 5.88C38.1731 5.784 38.1971 5.736 38.2451 5.736C38.6931 5.736 39.0371 5.744 39.2771 5.76L40.6931 5.784L42.0371 5.76C42.2931 5.744 42.6371 5.736 43.0691 5.736C43.1011 5.736 43.1171 5.784 43.1171 5.88C43.1171 5.976 43.1011 6.024 43.0691 6.024C42.7011 6.024 42.4211 6.072 42.2291 6.168C42.0531 6.264 41.9331 6.432 41.8691 6.672C41.8051 6.896 41.7731 7.248 41.7731 7.728V10.08H45.9971V7.68C45.9971 7.2 45.9651 6.848 45.9011 6.624C45.8371 6.384 45.7091 6.224 45.5171 6.144C45.3411 6.064 45.0691 6.024 44.7011 6.024C44.6531 6.024 44.6291 5.976 44.6291 5.88C44.6291 5.784 44.6531 5.736 44.7011 5.736C45.1491 5.736 45.4931 5.744 45.7331 5.76L47.1491 5.784L48.4931 5.76C48.7491 5.744 49.0931 5.736 49.5251 5.736C49.5571 5.736 49.5731 5.784 49.5731 5.88C49.5731 5.976 49.5571 6.024 49.5251 6.024C49.1571 6.024 48.8771 6.072 48.6851 6.168C48.5091 6.264 48.3891 6.432 48.3251 6.672C48.2611 6.896 48.2291 7.248 48.2291 7.728V13.056C48.2291 13.536 48.2611 13.896 48.3251 14.136C48.3891 14.36 48.5091 14.512 48.6851 14.592C48.8611 14.672 49.1411 14.712 49.5251 14.712ZM56.5609 9.504C59.0249 9.504 60.2569 10.336 60.2569 12C60.2569 12.912 59.9049 13.648 59.2009 14.208C58.5129 14.768 57.6089 15.048 56.4889 15.048L55.1929 15C54.4249 14.968 53.8729 14.952 53.5369 14.952L52.1449 14.976C51.8889 14.992 51.5289 15 51.0649 15C51.0169 15 50.9929 14.952 50.9929 14.856C50.9929 14.76 51.0169 14.712 51.0649 14.712C51.4489 14.712 51.7289 14.672 51.9049 14.592C52.0969 14.512 52.2249 14.36 52.2889 14.136C52.3529 13.896 52.3849 13.536 52.3849 13.056V7.68C52.3849 7.2 52.3529 6.848 52.2889 6.624C52.2249 6.384 52.0969 6.224 51.9049 6.144C51.7289 6.064 51.4569 6.024 51.0889 6.024C51.0409 6.024 51.0169 5.976 51.0169 5.88C51.0169 5.784 51.0409 5.736 51.0889 5.736C51.5369 5.736 51.8809 5.744 52.1209 5.76L53.5369 5.784L55.0249 5.76C55.3129 5.744 55.7049 5.736 56.2009 5.736C56.2329 5.736 56.2489 5.784 56.2489 5.88C56.2489 5.976 56.2329 6.024 56.2009 6.024C55.7369 6.024 55.3929 6.072 55.1689 6.168C54.9609 6.264 54.8169 6.432 54.7369 6.672C54.6569 6.896 54.6169 7.248 54.6169 7.728V9.72C55.2089 9.576 55.8569 9.504 56.5609 9.504ZM66.0169 14.712C66.0489 14.712 66.0649 14.76 66.0649 14.856C66.0649 14.952 66.0489 15 66.0169 15C65.5689 15 65.2249 14.992 64.9849 14.976L63.6409 14.952L62.2489 14.976C61.9929 14.992 61.6329 15 61.1689 15C61.1209 15 61.0969 14.952 61.0969 14.856C61.0969 14.76 61.1209 14.712 61.1689 14.712C61.5529 14.712 61.8329 14.672 62.0089 14.592C62.2009 14.512 62.3289 14.36 62.3929 14.136C62.4569 13.896 62.4889 13.536 62.4889 13.056V7.68C62.4889 7.2 62.4569 6.848 62.3929 6.624C62.3289 6.384 62.2009 6.224 62.0089 6.144C61.8329 6.064 61.5609 6.024 61.1929 6.024C61.1449 6.024 61.1209 5.976 61.1209 5.88C61.1209 5.784 61.1449 5.736 61.1929 5.736C61.6409 5.736 61.9849 5.744 62.2249 5.76L63.6409 5.784L64.9849 5.76C65.2409 5.744 65.5849 5.736 66.0169 5.736C66.0489 5.736 66.0649 5.784 66.0649 5.88C66.0649 5.976 66.0489 6.024 66.0169 6.024C65.6489 6.024 65.3689 6.072 65.1769 6.168C65.0009 6.264 64.8809 6.432 64.8169 6.672C64.7529 6.896 64.7209 7.248 64.7209 7.728V13.056C64.7209 13.536 64.7529 13.896 64.8169 14.136C64.8809 14.36 65.0009 14.512 65.1769 14.592C65.3529 14.672 65.6329 14.712 66.0169 14.712ZM55.9849 14.688C56.6249 14.688 57.0969 14.52 57.4009 14.184C57.7049 13.832 57.8569 13.28 57.8569 12.528C57.8569 10.864 57.1369 10.032 55.6969 10.032C55.3609 10.032 55.0009 10.08 54.6169 10.176V13.056C54.6169 13.632 54.7129 14.048 54.9049 14.304C55.0969 14.56 55.4569 14.688 55.9849 14.688ZM73.0614 3.744C72.4374 3.744 71.8454 3.64 71.2854 3.432C70.7414 3.224 70.3014 2.952 69.9654 2.616C69.6454 2.264 69.4854 1.888 69.4854 1.488C69.4854 1.2 69.5734 0.975999 69.7494 0.816C69.9254 0.639999 70.1814 0.551999 70.5174 0.551999C70.8214 0.551999 71.0454 0.623999 71.1894 0.767999C71.3494 0.895999 71.4614 1.056 71.5254 1.248C71.5894 1.424 71.6534 1.688 71.7174 2.04C71.7814 2.456 71.8934 2.784 72.0534 3.024C72.2294 3.248 72.5574 3.36 73.0374 3.36C73.5174 3.36 73.8614 3.24 74.0694 3C74.2774 2.744 74.4134 2.392 74.4774 1.944C74.5734 1.464 74.6854 1.112 74.8134 0.888C74.9574 0.663999 75.2214 0.551999 75.6054 0.551999C75.9254 0.551999 76.1734 0.639999 76.3494 0.816C76.5254 0.975999 76.6134 1.2 76.6134 1.488C76.6134 1.888 76.4454 2.264 76.1094 2.616C75.7734 2.968 75.3334 3.248 74.7894 3.456C74.2454 3.648 73.6694 3.744 73.0614 3.744ZM78.6294 14.712C78.6614 14.712 78.6774 14.76 78.6774 14.856C78.6774 14.952 78.6614 15 78.6294 15C78.1654 15 77.8054 14.992 77.5494 14.976L76.2294 14.952L74.8134 14.976C74.5574 14.992 74.2054 15 73.7574 15C73.7254 15 73.7094 14.952 73.7094 14.856C73.7094 14.76 73.7254 14.712 73.7574 14.712C74.1414 14.712 74.4214 14.672 74.5974 14.592C74.7894 14.512 74.9174 14.36 74.9814 14.136C75.0454 13.896 75.0774 13.536 75.0774 13.056V8.256L69.2454 15.096C69.1974 15.16 69.0934 15.192 68.9334 15.192C68.8534 15.192 68.7734 15.176 68.6934 15.144C68.6134 15.128 68.5734 15.112 68.5734 15.096V7.68C68.5734 7.2 68.5414 6.848 68.4774 6.624C68.4134 6.384 68.2934 6.224 68.1174 6.144C67.9414 6.064 67.6614 6.024 67.2774 6.024C67.2454 6.024 67.2294 5.976 67.2294 5.88C67.2294 5.784 67.2454 5.736 67.2774 5.736C67.6454 5.736 67.9254 5.744 68.1174 5.76L69.6534 5.784L71.5974 5.76C71.7414 5.744 71.9174 5.736 72.1254 5.736C72.1734 5.736 72.1974 5.784 72.1974 5.88C72.1974 5.976 72.1734 6.024 72.1254 6.024C71.7414 6.024 71.4534 6.064 71.2614 6.144C71.0854 6.224 70.9654 6.384 70.9014 6.624C70.8374 6.848 70.8054 7.2 70.8054 7.68V12.528L76.6614 5.664C76.7094 5.584 76.8134 5.544 76.9734 5.544C77.0694 5.544 77.1494 5.56 77.2134 5.592C77.2934 5.608 77.3334 5.632 77.3334 5.664V13.056C77.3334 13.536 77.3654 13.896 77.4294 14.136C77.4934 14.36 77.6134 14.512 77.7894 14.592C77.9654 14.672 78.2454 14.712 78.6294 14.712ZM98.046 14.712C98.094 14.712 98.118 14.76 98.118 14.856C98.118 14.952 98.094 15 98.046 15C97.582 15 97.222 14.992 96.966 14.976L95.646 14.952L94.374 14.976C94.166 14.992 93.87 15 93.486 15C93.438 15 93.414 14.952 93.414 14.856C93.414 14.76 93.438 14.712 93.486 14.712C93.87 14.712 94.142 14.656 94.302 14.544C94.462 14.416 94.542 14.152 94.542 13.752C94.542 13.672 94.526 13.472 94.494 13.152L94.014 9.192L91.23 15C91.214 15.064 91.158 15.096 91.062 15.096C90.95 15.096 90.886 15.064 90.87 15L87.39 9.096L87.126 12.504C87.03 13.976 87.574 14.712 88.758 14.712C88.806 14.712 88.83 14.76 88.83 14.856C88.83 14.952 88.806 15 88.758 15C88.39 15 88.102 14.992 87.894 14.976L86.862 14.952L85.854 14.976C85.662 14.992 85.39 15 85.038 15C84.99 15 84.966 14.952 84.966 14.856C84.966 14.76 84.99 14.712 85.038 14.712C85.534 14.712 85.91 14.528 86.166 14.16C86.422 13.792 86.574 13.24 86.622 12.504L87.126 5.664C87.126 5.616 87.174 5.576 87.27 5.544C87.366 5.496 87.47 5.472 87.582 5.472C87.742 5.472 87.846 5.512 87.894 5.592L91.926 12.384L95.19 5.592C95.222 5.544 95.294 5.52 95.406 5.52C95.502 5.52 95.598 5.544 95.694 5.592C95.806 5.624 95.862 5.656 95.862 5.688L96.726 13.056C96.79 13.584 96.854 13.952 96.918 14.16C96.982 14.368 97.094 14.512 97.254 14.592C97.414 14.672 97.678 14.712 98.046 14.712ZM101.943 3.864C101.527 3.864 101.199 3.752 100.959 3.528C100.735 3.288 100.623 2.96 100.623 2.544C100.623 2.16 100.743 1.856 100.983 1.632C101.223 1.408 101.543 1.296 101.943 1.296C102.343 1.296 102.647 1.408 102.855 1.632C103.079 1.856 103.191 2.16 103.191 2.544C103.191 2.96 103.079 3.288 102.855 3.528C102.647 3.752 102.343 3.864 101.943 3.864ZM106.119 3.864C105.703 3.864 105.383 3.752 105.159 3.528C104.935 3.288 104.823 2.96 104.823 2.544C104.823 2.16 104.935 1.864 105.159 1.656C105.399 1.432 105.719 1.32 106.119 1.32C106.519 1.32 106.823 1.432 107.031 1.656C107.255 1.864 107.367 2.16 107.367 2.544C107.367 2.96 107.255 3.288 107.031 3.528C106.823 3.752 106.519 3.864 106.119 3.864ZM107.679 13.416C107.711 13.416 107.743 13.448 107.775 13.512C107.823 13.576 107.831 13.624 107.799 13.656C107.207 14.232 106.607 14.648 105.999 14.904C105.391 15.16 104.727 15.288 104.007 15.288C102.999 15.288 102.127 15.08 101.391 14.664C100.655 14.232 100.095 13.664 99.7112 12.96C99.3272 12.24 99.1352 11.464 99.1352 10.632C99.1352 9.704 99.3672 8.848 99.8312 8.064C100.295 7.28 100.935 6.664 101.751 6.216C102.583 5.752 103.519 5.52 104.559 5.52C105.551 5.52 106.319 5.744 106.863 6.192C107.407 6.64 107.679 7.336 107.679 8.28C107.679 8.776 107.591 9.024 107.415 9.024L101.583 9.048C101.567 9.16 101.559 9.344 101.559 9.6C101.559 11.008 101.879 12.112 102.519 12.912C103.175 13.712 104.111 14.112 105.327 14.112C105.759 14.112 106.127 14.064 106.431 13.968C106.735 13.872 107.135 13.696 107.631 13.44L107.679 13.416ZM103.647 6C103.119 6 102.679 6.232 102.327 6.696C101.975 7.144 101.743 7.768 101.631 8.568L105.111 8.52C105.095 7.704 104.975 7.08 104.751 6.648C104.527 6.216 104.159 6 103.647 6ZM119.342 14.352C119.47 14.352 119.55 14.384 119.582 14.448C119.614 14.496 119.63 14.584 119.63 14.712C119.63 14.92 119.598 15.296 119.534 15.84C119.422 16.736 119.366 17.536 119.366 18.24C119.366 18.304 119.318 18.336 119.222 18.336C119.142 18.336 119.102 18.304 119.102 18.24C119.102 17.232 118.83 16.432 118.286 15.84C117.758 15.264 117.006 14.976 116.03 14.976H112.07C111.094 14.976 110.342 15.264 109.814 15.84C109.302 16.432 109.046 17.232 109.046 18.24C109.046 18.304 108.998 18.336 108.902 18.336C108.806 18.336 108.758 18.304 108.758 18.24C108.758 17.328 108.71 16.52 108.614 15.816C108.55 15.336 108.518 14.968 108.518 14.712C108.518 14.568 108.534 14.472 108.566 14.424C108.598 14.376 108.67 14.352 108.782 14.352H110.03L113.918 5.376C113.95 5.312 113.998 5.28 114.062 5.28C114.142 5.28 114.19 5.312 114.206 5.376L118.166 14.352H119.342ZM110.678 14.352H115.55L113.126 8.664L110.678 14.352Z" fill="url(#paint0_linear_76_181)"/>
<defs>
<linearGradient id="paint0_linear_76_181" x1="2.26131" y1="7.27659" x2="120" y2="7.27659" gradientUnits="userSpaceOnUse">
<stop stop-color="#C1AD64"/>
<stop offset="0.34375" stop-color="#A98343"/>
<stop offset="0.536458" stop-color="#A27C3D"/>
<stop offset="0.875" stop-color="#C4B067"/>
</linearGradient>
</defs>
</svg>
