<svg width="167" height="17" viewBox="0 0 167 17" fill="none" xmlns="http://www.w3.org/2000/svg">
<path d="M7.784 16.288C6.296 16.288 4.968 15.944 3.8 15.256C2.648 14.552 1.752 13.608 1.112 12.424C0.488 11.224 0.176 9.92 0.176 8.512C0.176 6.864 0.592 5.456 1.424 4.288C2.256 3.104 3.32 2.216 4.616 1.624C5.928 1.032 7.264 0.735999 8.624 0.735999C10.144 0.735999 11.48 1.096 12.632 1.816C13.784 2.52 14.664 3.456 15.272 4.624C15.896 5.792 16.208 7.032 16.208 8.344C16.208 9.8 15.824 11.136 15.056 12.352C14.288 13.568 13.256 14.528 11.96 15.232C10.68 15.936 9.288 16.288 7.784 16.288ZM8.576 15.688C9.472 15.688 10.272 15.432 10.976 14.92C11.696 14.392 12.256 13.632 12.656 12.64C13.056 11.632 13.256 10.432 13.256 9.04C13.256 7.568 13.032 6.256 12.584 5.104C12.136 3.936 11.488 3.024 10.64 2.368C9.792 1.712 8.8 1.384 7.664 1.384C6.208 1.384 5.088 1.936 4.304 3.04C3.52 4.128 3.128 5.656 3.128 7.624C3.128 9.176 3.36 10.568 3.824 11.8C4.304 13.016 4.952 13.968 5.768 14.656C6.6 15.344 7.536 15.688 8.576 15.688ZM39.224 15.712C39.272 15.712 39.296 15.76 39.296 15.856C39.296 15.952 39.272 16 39.224 16H35.528C35.32 16 35.128 15.936 34.952 15.808C34.792 15.68 34.504 15.352 34.088 14.824C33.672 14.28 32.992 13.328 32.048 11.968L31.4 11.056C30.84 10.24 30.424 9.672 30.152 9.352C29.88 9.016 29.592 8.784 29.288 8.656C29 8.512 28.616 8.44 28.136 8.44V14.056C28.136 14.536 28.176 14.896 28.256 15.136C28.352 15.36 28.528 15.512 28.784 15.592C29.04 15.672 29.44 15.712 29.984 15.712C30.032 15.712 30.056 15.76 30.056 15.856C30.056 15.952 30.032 16 29.984 16C29.424 16 28.976 15.992 28.64 15.976L26.648 15.952L24.896 15.976C24.576 15.992 24.144 16 23.6 16C23.552 16 23.528 15.952 23.528 15.856C23.528 15.76 23.552 15.712 23.6 15.712C24.144 15.712 24.544 15.672 24.8 15.592C25.056 15.512 25.232 15.36 25.328 15.136C25.424 14.896 25.472 14.536 25.472 14.056V2.944C25.472 2.464 25.424 2.112 25.328 1.888C25.232 1.664 25.056 1.512 24.8 1.432C24.56 1.336 24.168 1.288 23.624 1.288C23.576 1.288 23.552 1.24 23.552 1.144C23.552 1.048 23.576 1 23.624 1L24.896 1.024C25.632 1.056 26.216 1.072 26.648 1.072C27.192 1.072 27.864 1.056 28.664 1.024L29.984 1C30.032 1 30.056 1.048 30.056 1.144C30.056 1.24 30.032 1.288 29.984 1.288C29.456 1.288 29.064 1.336 28.808 1.432C28.552 1.528 28.376 1.696 28.28 1.936C28.184 2.16 28.136 2.512 28.136 2.992V8.032C28.568 8.016 29.112 8.008 29.768 8.008L32.288 4.552C32.944 3.64 33.272 2.88 33.272 2.272C33.272 1.968 33.184 1.728 33.008 1.552C32.832 1.376 32.592 1.288 32.288 1.288C32.256 1.288 32.24 1.24 32.24 1.144C32.24 1.048 32.256 1 32.288 1L33.392 1.024C34.096 1.056 34.72 1.072 35.264 1.072C35.888 1.072 36.536 1.056 37.208 1.024L38.24 1C38.288 1 38.312 1.048 38.312 1.144C38.312 1.24 38.288 1.288 38.24 1.288C37.536 1.288 36.744 1.544 35.864 2.056C34.984 2.568 34.24 3.208 33.632 3.976L30.368 8.032C30.992 8.064 31.504 8.184 31.904 8.392C32.304 8.584 32.696 8.896 33.08 9.328C33.48 9.76 34.04 10.48 34.76 11.488L35.192 12.088C35.864 13.016 36.384 13.712 36.752 14.176C37.136 14.64 37.528 15.008 37.928 15.28C38.328 15.552 38.76 15.696 39.224 15.712ZM46.9481 16.288C45.4601 16.288 44.1321 15.944 42.9641 15.256C41.8121 14.552 40.9161 13.608 40.2761 12.424C39.6521 11.224 39.3401 9.92 39.3401 8.512C39.3401 6.864 39.7561 5.456 40.5881 4.288C41.4201 3.104 42.4841 2.216 43.7801 1.624C45.0921 1.032 46.4281 0.735999 47.7881 0.735999C49.3081 0.735999 50.6441 1.096 51.7961 1.816C52.9481 2.52 53.8281 3.456 54.4361 4.624C55.0601 5.792 55.3721 7.032 55.3721 8.344C55.3721 9.8 54.9881 11.136 54.2201 12.352C53.4521 13.568 52.4201 14.528 51.1241 15.232C49.8441 15.936 48.4521 16.288 46.9481 16.288ZM47.7401 15.688C48.6361 15.688 49.4361 15.432 50.1401 14.92C50.8601 14.392 51.4201 13.632 51.8201 12.64C52.2201 11.632 52.4201 10.432 52.4201 9.04C52.4201 7.568 52.1961 6.256 51.7481 5.104C51.3001 3.936 50.6521 3.024 49.8041 2.368C48.9561 1.712 47.9641 1.384 46.8281 1.384C45.3721 1.384 44.2521 1.936 43.4681 3.04C42.6841 4.128 42.2921 5.656 42.2921 7.624C42.2921 9.176 42.5241 10.568 42.9881 11.8C43.4681 13.016 44.1161 13.968 44.9321 14.656C45.7641 15.344 46.7001 15.688 47.7401 15.688ZM76.5311 15.712C76.5631 15.712 76.5791 15.76 76.5791 15.856C76.5791 15.952 76.5631 16 76.5311 16C75.9871 16 75.5551 15.992 75.2351 15.976L73.4591 15.952L71.6591 15.976C71.3551 15.992 70.9391 16 70.4111 16C70.3631 16 70.3391 15.952 70.3391 15.856C70.3391 15.76 70.3631 15.712 70.4111 15.712C71.0831 15.712 71.5391 15.632 71.7791 15.472C72.0191 15.312 72.1391 14.976 72.1391 14.464L72.1151 14.056L71.6111 4.24L66.6671 15.832C66.6351 15.896 66.5711 15.928 66.4751 15.928C66.3791 15.928 66.3151 15.896 66.2831 15.832L60.2111 4.288L60.0191 12.952C60.0031 13.816 60.1711 14.496 60.5231 14.992C60.8911 15.472 61.4031 15.712 62.0591 15.712C62.1071 15.712 62.1311 15.76 62.1311 15.856C62.1311 15.952 62.1071 16 62.0591 16C61.6271 16 61.2911 15.992 61.0511 15.976L59.7311 15.952L58.2191 15.976C57.9631 15.992 57.6191 16 57.1871 16C57.1391 16 57.1151 15.952 57.1151 15.856C57.1151 15.76 57.1391 15.712 57.1871 15.712C57.8431 15.712 58.3631 15.464 58.7471 14.968C59.1311 14.472 59.3311 13.8 59.3471 12.952L59.5631 3.016L59.5391 2.992C59.2191 2.4 58.8831 1.968 58.5311 1.696C58.1951 1.424 57.8031 1.288 57.3551 1.288C57.3071 1.288 57.2831 1.24 57.2831 1.144C57.2831 1.048 57.3071 1 57.3551 1L58.4831 1.024C58.7071 1.04 58.9951 1.048 59.3471 1.048L60.6191 1.024C60.7631 1.008 60.9471 1 61.1711 1C61.3791 1 61.5391 1.072 61.6511 1.216C61.7631 1.36 61.9711 1.704 62.2751 2.248L67.5071 12.064L72.0671 1.6C72.1631 1.376 72.2591 1.224 72.3551 1.144C72.4671 1.048 72.6111 1 72.7871 1C72.9311 1 73.0911 1.008 73.2671 1.024C73.4591 1.04 73.6751 1.048 73.9151 1.048L75.3311 1.024C75.5551 1.008 75.8751 1 76.2911 1C76.3391 1 76.3631 1.048 76.3631 1.144C76.3631 1.24 76.3391 1.288 76.2911 1.288C75.5391 1.288 74.9951 1.44 74.6591 1.744C74.3231 2.048 74.1711 2.52 74.2031 3.16L74.7791 14.056C74.8111 14.552 74.8671 14.912 74.9471 15.136C75.0431 15.36 75.2031 15.512 75.4271 15.592C75.6671 15.672 76.0351 15.712 76.5311 15.712ZM94.3732 15.712C94.4212 15.712 94.4452 15.76 94.4452 15.856C94.4452 15.952 94.4212 16 94.3732 16C93.8292 16 93.3972 15.992 93.0772 15.976L91.3252 15.952L89.3332 15.976C88.9972 15.992 88.5492 16 87.9892 16C87.9412 16 87.9172 15.952 87.9172 15.856C87.9172 15.76 87.9412 15.712 87.9892 15.712C88.5332 15.712 88.9332 15.672 89.1892 15.592C89.4452 15.512 89.6132 15.36 89.6932 15.136C89.7892 14.896 89.8372 14.536 89.8372 14.056V3.232C89.8372 2.688 89.8132 2.328 89.7652 2.152C89.7332 1.976 89.6452 1.864 89.5012 1.816C89.3572 1.768 89.0692 1.744 88.6372 1.744H83.7172C83.2372 1.744 82.9172 1.768 82.7572 1.816C82.5972 1.864 82.4932 1.976 82.4452 2.152C82.4132 2.328 82.3972 2.688 82.3972 3.232V14.056C82.3972 14.552 82.4372 14.912 82.5172 15.136C82.6132 15.36 82.7812 15.512 83.0212 15.592C83.2772 15.672 83.6852 15.712 84.2452 15.712C84.2932 15.712 84.3172 15.76 84.3172 15.856C84.3172 15.952 84.2932 16 84.2452 16C83.6852 16 83.2372 15.992 82.9012 15.976L80.9092 15.952L79.1332 15.976C78.8132 15.992 78.3812 16 77.8372 16C77.8052 16 77.7892 15.952 77.7892 15.856C77.7892 15.76 77.8052 15.712 77.8372 15.712C78.3972 15.712 78.8052 15.672 79.0612 15.592C79.3172 15.512 79.4932 15.36 79.5892 15.136C79.6852 14.896 79.7332 14.536 79.7332 14.056V3.232C79.7332 2.512 79.6132 2.008 79.3732 1.72C79.1332 1.432 78.6372 1.288 77.8852 1.288C77.8372 1.288 77.8132 1.24 77.8132 1.144C77.8132 1.048 77.8372 1 77.8852 1C78.4292 1 78.9572 1.008 79.4692 1.024C81.6132 1.056 83.8612 1.072 86.2132 1.072C88.3412 1.072 90.7972 1.048 93.5812 1H94.3732C94.4212 1 94.4452 1.048 94.4452 1.144C94.4452 1.24 94.4212 1.288 94.3732 1.288C93.6212 1.288 93.1172 1.432 92.8612 1.72C92.6212 2.008 92.5012 2.512 92.5012 3.232V14.056C92.5012 14.536 92.5492 14.896 92.6452 15.136C92.7412 15.36 92.9172 15.512 93.1732 15.592C93.4292 15.672 93.8292 15.712 94.3732 15.712ZM112.349 15.712C112.429 15.712 112.469 15.76 112.469 15.856C112.469 15.952 112.429 16 112.349 16C112.029 16 111.533 15.984 110.861 15.952C110.157 15.92 109.653 15.904 109.349 15.904C108.949 15.904 108.461 15.92 107.885 15.952C107.341 15.984 106.909 16 106.589 16C106.525 16 106.493 15.952 106.493 15.856C106.493 15.76 106.525 15.712 106.589 15.712C107.005 15.712 107.301 15.672 107.477 15.592C107.669 15.496 107.765 15.336 107.765 15.112C107.765 14.84 107.605 14.384 107.285 13.744L105.653 10.504H99.7486L98.8126 12.592C98.6046 13.056 98.5006 13.488 98.5006 13.888C98.5006 14.464 98.7006 14.912 99.1006 15.232C99.5166 15.552 100.069 15.712 100.757 15.712C100.837 15.712 100.877 15.76 100.877 15.856C100.877 15.952 100.837 16 100.757 16C100.469 16 100.053 15.984 99.5086 15.952C98.9006 15.92 98.3726 15.904 97.9246 15.904C97.4926 15.904 96.9726 15.92 96.3646 15.952C95.8206 15.984 95.3806 16 95.0446 16C94.9806 16 94.9486 15.952 94.9486 15.856C94.9486 15.76 94.9806 15.712 95.0446 15.712C95.4926 15.712 95.8686 15.624 96.1726 15.448C96.4766 15.256 96.7806 14.928 97.0846 14.464C97.3886 13.984 97.7486 13.28 98.1646 12.352L103.373 0.904C103.405 0.855999 103.477 0.831999 103.589 0.831999C103.717 0.831999 103.789 0.855999 103.805 0.904L109.805 12.712C110.365 13.848 110.829 14.632 111.197 15.064C111.565 15.496 111.949 15.712 112.349 15.712ZM100.061 9.832H105.293L102.533 4.36L100.061 9.832ZM129.888 15.712C129.936 15.712 129.96 15.76 129.96 15.856C129.96 15.952 129.936 16 129.888 16C129.328 16 128.88 15.992 128.544 15.976L126.696 15.952L124.536 15.976C124.248 15.992 123.856 16 123.36 16C123.312 16 123.288 15.952 123.288 15.856C123.288 15.76 123.312 15.712 123.36 15.712C123.952 15.712 124.384 15.672 124.656 15.592C124.928 15.512 125.112 15.36 125.208 15.136C125.304 14.912 125.352 14.552 125.352 14.056V8.536H117.6V14.056C117.6 14.536 117.648 14.896 117.744 15.136C117.84 15.36 118.024 15.512 118.296 15.592C118.568 15.672 119 15.712 119.592 15.712C119.624 15.712 119.64 15.76 119.64 15.856C119.64 15.952 119.624 16 119.592 16C119.032 16 118.584 15.992 118.248 15.976L116.16 15.952L114.36 15.976C114.04 15.992 113.6 16 113.04 16C113.008 16 112.992 15.952 112.992 15.856C112.992 15.76 113.008 15.712 113.04 15.712C113.6 15.712 114.008 15.672 114.264 15.592C114.52 15.512 114.696 15.36 114.792 15.136C114.888 14.896 114.936 14.536 114.936 14.056V2.944C114.936 2.464 114.888 2.112 114.792 1.888C114.696 1.664 114.52 1.512 114.264 1.432C114.024 1.336 113.632 1.288 113.088 1.288C113.04 1.288 113.016 1.24 113.016 1.144C113.016 1.048 113.04 1 113.088 1L114.384 1.024C115.12 1.056 115.712 1.072 116.16 1.072C116.768 1.072 117.472 1.056 118.272 1.024L119.592 1C119.624 1 119.64 1.048 119.64 1.144C119.64 1.24 119.624 1.288 119.592 1.288C119.016 1.288 118.592 1.336 118.32 1.432C118.048 1.528 117.856 1.696 117.744 1.936C117.648 2.16 117.6 2.512 117.6 2.992V7.864H125.352V2.992C125.352 2.512 125.304 2.16 125.208 1.936C125.112 1.696 124.928 1.528 124.656 1.432C124.384 1.336 123.952 1.288 123.36 1.288C123.312 1.288 123.288 1.24 123.288 1.144C123.288 1.048 123.312 1 123.36 1L124.536 1.024C125.336 1.056 126.056 1.072 126.696 1.072C127.128 1.072 127.744 1.056 128.544 1.024L129.888 1C129.936 1 129.96 1.048 129.96 1.144C129.96 1.24 129.936 1.288 129.888 1.288C129.344 1.288 128.936 1.336 128.664 1.432C128.408 1.512 128.232 1.664 128.136 1.888C128.056 2.112 128.016 2.464 128.016 2.944V14.056C128.016 14.536 128.056 14.896 128.136 15.136C128.232 15.36 128.408 15.512 128.664 15.592C128.92 15.672 129.328 15.712 129.888 15.712ZM148.24 15.712C148.288 15.712 148.312 15.76 148.312 15.856C148.312 15.952 148.288 16 148.24 16C147.68 16 147.232 15.992 146.896 15.976L145.048 15.952L142.888 15.976C142.6 15.992 142.208 16 141.712 16C141.664 16 141.64 15.952 141.64 15.856C141.64 15.76 141.664 15.712 141.712 15.712C142.304 15.712 142.736 15.672 143.008 15.592C143.28 15.512 143.464 15.36 143.56 15.136C143.656 14.912 143.704 14.552 143.704 14.056V4.24L134.104 16.264C134.056 16.312 133.936 16.336 133.744 16.336C133.44 16.336 133.288 16.28 133.288 16.168V2.944C133.288 2.464 133.24 2.112 133.144 1.888C133.048 1.664 132.872 1.512 132.616 1.432C132.36 1.336 131.96 1.288 131.416 1.288C131.368 1.288 131.344 1.24 131.344 1.144C131.344 1.048 131.368 1 131.416 1L132.76 1.024C133.56 1.056 134.176 1.072 134.608 1.072C135.248 1.072 135.968 1.056 136.768 1.024L137.944 1C137.992 1 138.016 1.048 138.016 1.144C138.016 1.24 137.992 1.288 137.944 1.288C137.352 1.288 136.92 1.336 136.648 1.432C136.376 1.512 136.192 1.664 136.096 1.888C136 2.112 135.952 2.464 135.952 2.944V12.856L145.552 0.831999C145.6 0.783999 145.72 0.759999 145.912 0.759999C146.024 0.759999 146.128 0.775999 146.224 0.808C146.32 0.839999 146.368 0.879999 146.368 0.927999V14.056C146.368 14.536 146.416 14.896 146.512 15.136C146.608 15.36 146.784 15.512 147.04 15.592C147.296 15.672 147.696 15.712 148.24 15.712ZM166.592 15.712C166.64 15.712 166.664 15.76 166.664 15.856C166.664 15.952 166.64 16 166.592 16C166.032 16 165.584 15.992 165.248 15.976L163.4 15.952L161.24 15.976C160.952 15.992 160.56 16 160.064 16C160.016 16 159.992 15.952 159.992 15.856C159.992 15.76 160.016 15.712 160.064 15.712C160.656 15.712 161.088 15.672 161.36 15.592C161.632 15.512 161.816 15.36 161.912 15.136C162.008 14.912 162.056 14.552 162.056 14.056V4.24L152.456 16.264C152.408 16.312 152.288 16.336 152.096 16.336C151.792 16.336 151.64 16.28 151.64 16.168V2.944C151.64 2.464 151.592 2.112 151.496 1.888C151.4 1.664 151.224 1.512 150.968 1.432C150.712 1.336 150.312 1.288 149.768 1.288C149.72 1.288 149.696 1.24 149.696 1.144C149.696 1.048 149.72 1 149.768 1L151.112 1.024C151.912 1.056 152.528 1.072 152.96 1.072C153.6 1.072 154.32 1.056 155.12 1.024L156.296 1C156.344 1 156.368 1.048 156.368 1.144C156.368 1.24 156.344 1.288 156.296 1.288C155.704 1.288 155.272 1.336 155 1.432C154.728 1.512 154.544 1.664 154.448 1.888C154.352 2.112 154.304 2.464 154.304 2.944V12.856L163.904 0.831999C163.952 0.783999 164.072 0.759999 164.264 0.759999C164.376 0.759999 164.48 0.775999 164.576 0.808C164.672 0.839999 164.72 0.879999 164.72 0.927999V14.056C164.72 14.536 164.768 14.896 164.864 15.136C164.96 15.36 165.136 15.512 165.392 15.592C165.648 15.672 166.048 15.712 166.592 15.712Z" fill="url(#paint0_linear_76_130)"/>
<defs>
<linearGradient id="paint0_linear_76_130" x1="2.18467" y1="8.27659" x2="168" y2="8.27659" gradientUnits="userSpaceOnUse">
<stop stop-color="#C1AD64"/>
<stop offset="0.34375" stop-color="#A98343"/>
<stop offset="0.536458" stop-color="#A27C3D"/>
<stop offset="0.875" stop-color="#C4B067"/>
</linearGradient>
</defs>
</svg>
