<svg width="164" height="17" viewBox="0 0 164 17" fill="none" xmlns="http://www.w3.org/2000/svg">
<path d="M7.784 16.288C6.296 16.288 4.968 15.944 3.8 15.256C2.648 14.552 1.752 13.608 1.112 12.424C0.488 11.224 0.176 9.92 0.176 8.512C0.176 6.864 0.592 5.456 1.424 4.288C2.256 3.104 3.32 2.216 4.616 1.624C5.928 1.032 7.264 0.735999 8.624 0.735999C10.144 0.735999 11.48 1.096 12.632 1.816C13.784 2.52 14.664 3.456 15.272 4.624C15.896 5.792 16.208 7.032 16.208 8.344C16.208 9.8 15.824 11.136 15.056 12.352C14.288 13.568 13.256 14.528 11.96 15.232C10.68 15.936 9.288 16.288 7.784 16.288ZM8.576 15.688C9.472 15.688 10.272 15.432 10.976 14.92C11.696 14.392 12.256 13.632 12.656 12.64C13.056 11.632 13.256 10.432 13.256 9.04C13.256 7.568 13.032 6.256 12.584 5.104C12.136 3.936 11.488 3.024 10.64 2.368C9.792 1.712 8.8 1.384 7.664 1.384C6.208 1.384 5.088 1.936 4.304 3.04C3.52 4.128 3.128 5.656 3.128 7.624C3.128 9.176 3.36 10.568 3.824 11.8C4.304 13.016 4.952 13.968 5.768 14.656C6.6 15.344 7.536 15.688 8.576 15.688ZM27.479 0.735999C28.183 0.735999 28.919 0.799999 29.687 0.927999C30.455 1.04 31.055 1.192 31.487 1.384C31.631 1.432 31.719 1.496 31.751 1.576C31.799 1.64 31.839 1.76 31.871 1.936L32.159 5.272C32.159 5.32 32.119 5.352 32.039 5.368C31.959 5.384 31.911 5.36 31.895 5.296C31.351 4.032 30.623 3.056 29.711 2.368C28.799 1.68 27.743 1.336 26.543 1.336C24.959 1.336 23.735 1.92 22.871 3.088C22.007 4.256 21.575 5.824 21.575 7.792C21.575 9.264 21.807 10.608 22.271 11.824C22.751 13.04 23.415 14.008 24.263 14.728C25.127 15.432 26.103 15.784 27.191 15.784C28.215 15.784 29.127 15.448 29.927 14.776C30.743 14.088 31.471 13.048 32.111 11.656C32.127 11.592 32.175 11.568 32.255 11.584C32.351 11.6 32.399 11.632 32.399 11.68L32.039 14.944C32.007 15.136 31.967 15.264 31.919 15.328C31.887 15.376 31.799 15.432 31.655 15.496C30.231 16.024 28.767 16.288 27.263 16.288C25.311 16.288 23.679 15.904 22.367 15.136C21.055 14.352 20.087 13.368 19.463 12.184C18.855 10.984 18.551 9.736 18.551 8.44C18.551 6.92 18.959 5.576 19.775 4.408C20.607 3.24 21.703 2.336 23.063 1.696C24.439 1.056 25.911 0.735999 27.479 0.735999ZM50.9977 15.712C51.0457 15.712 51.0697 15.76 51.0697 15.856C51.0697 15.952 51.0457 16 50.9977 16C50.4377 16 49.9897 15.992 49.6537 15.976L47.8057 15.952L45.6457 15.976C45.3577 15.992 44.9657 16 44.4697 16C44.4217 16 44.3977 15.952 44.3977 15.856C44.3977 15.76 44.4217 15.712 44.4697 15.712C45.0617 15.712 45.4937 15.672 45.7657 15.592C46.0377 15.512 46.2217 15.36 46.3177 15.136C46.4137 14.912 46.4617 14.552 46.4617 14.056V8.536H38.7097V14.056C38.7097 14.536 38.7577 14.896 38.8537 15.136C38.9497 15.36 39.1337 15.512 39.4057 15.592C39.6777 15.672 40.1097 15.712 40.7017 15.712C40.7337 15.712 40.7497 15.76 40.7497 15.856C40.7497 15.952 40.7337 16 40.7017 16C40.1417 16 39.6937 15.992 39.3577 15.976L37.2697 15.952L35.4697 15.976C35.1497 15.992 34.7097 16 34.1497 16C34.1177 16 34.1017 15.952 34.1017 15.856C34.1017 15.76 34.1177 15.712 34.1497 15.712C34.7097 15.712 35.1177 15.672 35.3737 15.592C35.6297 15.512 35.8057 15.36 35.9017 15.136C35.9977 14.896 36.0457 14.536 36.0457 14.056V2.944C36.0457 2.464 35.9977 2.112 35.9017 1.888C35.8057 1.664 35.6297 1.512 35.3737 1.432C35.1337 1.336 34.7417 1.288 34.1977 1.288C34.1497 1.288 34.1257 1.24 34.1257 1.144C34.1257 1.048 34.1497 1 34.1977 1L35.4937 1.024C36.2297 1.056 36.8217 1.072 37.2697 1.072C37.8777 1.072 38.5817 1.056 39.3817 1.024L40.7017 1C40.7337 1 40.7497 1.048 40.7497 1.144C40.7497 1.24 40.7337 1.288 40.7017 1.288C40.1257 1.288 39.7017 1.336 39.4297 1.432C39.1577 1.528 38.9657 1.696 38.8537 1.936C38.7577 2.16 38.7097 2.512 38.7097 2.992V7.864H46.4617V2.992C46.4617 2.512 46.4137 2.16 46.3177 1.936C46.2217 1.696 46.0377 1.528 45.7657 1.432C45.4937 1.336 45.0617 1.288 44.4697 1.288C44.4217 1.288 44.3977 1.24 44.3977 1.144C44.3977 1.048 44.4217 1 44.4697 1L45.6457 1.024C46.4457 1.056 47.1657 1.072 47.8057 1.072C48.2377 1.072 48.8537 1.056 49.6537 1.024L50.9977 1C51.0457 1 51.0697 1.048 51.0697 1.144C51.0697 1.24 51.0457 1.288 50.9977 1.288C50.4537 1.288 50.0457 1.336 49.7737 1.432C49.5177 1.512 49.3417 1.664 49.2457 1.888C49.1657 2.112 49.1257 2.464 49.1257 2.944V14.056C49.1257 14.536 49.1657 14.896 49.2457 15.136C49.3417 15.36 49.5177 15.512 49.7737 15.592C50.0297 15.672 50.4377 15.712 50.9977 15.712ZM60.5418 16.288C59.0538 16.288 57.7258 15.944 56.5578 15.256C55.4058 14.552 54.5098 13.608 53.8698 12.424C53.2458 11.224 52.9338 9.92 52.9338 8.512C52.9338 6.864 53.3498 5.456 54.1818 4.288C55.0138 3.104 56.0778 2.216 57.3738 1.624C58.6858 1.032 60.0218 0.735999 61.3818 0.735999C62.9018 0.735999 64.2378 1.096 65.3898 1.816C66.5418 2.52 67.4218 3.456 68.0298 4.624C68.6538 5.792 68.9658 7.032 68.9658 8.344C68.9658 9.8 68.5818 11.136 67.8138 12.352C67.0458 13.568 66.0138 14.528 64.7178 15.232C63.4378 15.936 62.0458 16.288 60.5418 16.288ZM61.3338 15.688C62.2298 15.688 63.0298 15.432 63.7338 14.92C64.4538 14.392 65.0138 13.632 65.4138 12.64C65.8138 11.632 66.0138 10.432 66.0138 9.04C66.0138 7.568 65.7898 6.256 65.3418 5.104C64.8938 3.936 64.2458 3.024 63.3978 2.368C62.5498 1.712 61.5578 1.384 60.4218 1.384C58.9658 1.384 57.8458 1.936 57.0618 3.04C56.2778 4.128 55.8858 5.656 55.8858 7.624C55.8858 9.176 56.1178 10.568 56.5818 11.8C57.0618 13.016 57.7098 13.968 58.5258 14.656C59.3578 15.344 60.2938 15.688 61.3338 15.688ZM78.7728 7.576C80.1168 7.736 81.1808 8.184 81.9648 8.92C82.7648 9.656 83.1648 10.568 83.1648 11.656C83.1648 12.488 82.9248 13.24 82.4448 13.912C81.9648 14.584 81.3008 15.12 80.4528 15.52C79.6048 15.904 78.6608 16.096 77.6208 16.096C77.1728 16.096 76.6608 16.072 76.0848 16.024C75.8608 16.008 75.5808 15.992 75.2448 15.976C74.9248 15.96 74.5648 15.952 74.1648 15.952L72.4128 15.976C72.0928 15.992 71.6608 16 71.1168 16C71.0688 16 71.0448 15.952 71.0448 15.856C71.0448 15.76 71.0688 15.712 71.1168 15.712C71.5808 15.712 71.9328 15.672 72.1728 15.592C72.4128 15.496 72.5808 15.336 72.6768 15.112C72.7888 14.872 72.8448 14.52 72.8448 14.056V2.944C72.8448 2.272 72.7328 1.832 72.5088 1.624C72.2848 1.4 71.8288 1.288 71.1408 1.288C71.1088 1.288 71.0928 1.24 71.0928 1.144C71.0928 1.048 71.1088 1 71.1408 1L72.4128 1.024C73.1488 1.056 73.7328 1.072 74.1648 1.072C74.6128 1.072 75.0768 1.048 75.5568 1C75.7168 0.983999 75.9568 0.967999 76.2768 0.951999C76.5968 0.935999 76.8768 0.927999 77.1168 0.927999C78.5728 0.927999 79.7008 1.192 80.5008 1.72C81.3008 2.248 81.7008 3.016 81.7008 4.024C81.7008 4.792 81.4448 5.488 80.9328 6.112C80.4368 6.736 79.7168 7.224 78.7728 7.576ZM76.7568 1.456C76.2928 1.456 75.9728 1.568 75.7968 1.792C75.6208 2 75.5328 2.4 75.5328 2.992V7.552L76.4928 7.576C77.3248 7.576 77.9648 7.264 78.4128 6.64C78.8608 6.016 79.0848 5.216 79.0848 4.24C79.0848 3.328 78.8848 2.64 78.4848 2.176C78.0848 1.696 77.5088 1.456 76.7568 1.456ZM77.2128 15.496C79.3088 15.496 80.3568 14.408 80.3568 12.232C80.3568 11 80.0608 10.024 79.4688 9.304C78.8768 8.584 77.9808 8.224 76.7808 8.224C76.3168 8.224 75.9008 8.24 75.5328 8.272V14.056C75.5328 14.584 75.6368 14.96 75.8448 15.184C76.0528 15.392 76.5088 15.496 77.2128 15.496ZM101.614 15.712C101.694 15.712 101.734 15.76 101.734 15.856C101.734 15.952 101.694 16 101.614 16C101.294 16 100.798 15.984 100.126 15.952C99.4223 15.92 98.9183 15.904 98.6143 15.904C98.2143 15.904 97.7263 15.92 97.1503 15.952C96.6063 15.984 96.1743 16 95.8543 16C95.7903 16 95.7583 15.952 95.7583 15.856C95.7583 15.76 95.7903 15.712 95.8543 15.712C96.2703 15.712 96.5663 15.672 96.7422 15.592C96.9343 15.496 97.0303 15.336 97.0303 15.112C97.0303 14.84 96.8703 14.384 96.5503 13.744L94.9183 10.504H89.0143L88.0783 12.592C87.8703 13.056 87.7663 13.488 87.7663 13.888C87.7663 14.464 87.9663 14.912 88.3663 15.232C88.7823 15.552 89.3343 15.712 90.0223 15.712C90.1023 15.712 90.1423 15.76 90.1423 15.856C90.1423 15.952 90.1023 16 90.0223 16C89.7343 16 89.3183 15.984 88.7743 15.952C88.1663 15.92 87.6383 15.904 87.1903 15.904C86.7583 15.904 86.2383 15.92 85.6303 15.952C85.0863 15.984 84.6463 16 84.3102 16C84.2462 16 84.2142 15.952 84.2142 15.856C84.2142 15.76 84.2462 15.712 84.3102 15.712C84.7583 15.712 85.1343 15.624 85.4383 15.448C85.7423 15.256 86.0463 14.928 86.3503 14.464C86.6543 13.984 87.0143 13.28 87.4303 12.352L92.6383 0.904C92.6703 0.855999 92.7423 0.831999 92.8543 0.831999C92.9823 0.831999 93.0543 0.855999 93.0703 0.904L99.0703 12.712C99.6303 13.848 100.094 14.632 100.462 15.064C100.83 15.496 101.214 15.712 101.614 15.712ZM89.3263 9.832H94.5583L91.7983 4.36L89.3263 9.832ZM105.226 1.552C103.322 1.552 101.954 2.792 101.122 5.272C101.106 5.32 101.058 5.344 100.978 5.344C100.898 5.328 100.858 5.296 100.858 5.248C100.922 4.608 100.994 3.784 101.074 2.776C101.154 1.752 101.194 0.984 101.194 0.472C101.194 0.392 101.234 0.352 101.314 0.352C101.41 0.352 101.458 0.392 101.458 0.472C101.458 0.824 101.914 1 102.826 1C104.202 1.048 105.81 1.072 107.65 1.072C108.594 1.072 109.594 1.056 110.65 1.024L112.282 1C112.89 1 113.33 0.96 113.602 0.879999C113.89 0.799999 114.074 0.639999 114.154 0.399999C114.17 0.335999 114.218 0.303999 114.298 0.303999C114.394 0.303999 114.442 0.335999 114.442 0.399999C114.394 0.88 114.338 1.648 114.274 2.704C114.226 3.76 114.202 4.608 114.202 5.248C114.202 5.296 114.162 5.32 114.082 5.32C114.002 5.32 113.954 5.296 113.938 5.248C113.698 4.016 113.25 3.096 112.594 2.488C111.938 1.864 111.13 1.552 110.17 1.552C109.706 1.552 109.394 1.656 109.234 1.864C109.09 2.056 109.018 2.432 109.018 2.992V14.056C109.018 14.552 109.066 14.912 109.162 15.136C109.258 15.36 109.442 15.512 109.714 15.592C109.986 15.672 110.418 15.712 111.01 15.712C111.058 15.712 111.082 15.76 111.082 15.856C111.082 15.952 111.058 16 111.01 16C110.434 16 109.978 15.992 109.642 15.976L107.65 15.952L105.706 15.976C105.37 15.992 104.906 16 104.314 16C104.266 16 104.242 15.952 104.242 15.856C104.242 15.76 104.266 15.712 104.314 15.712C104.89 15.712 105.314 15.672 105.586 15.592C105.874 15.512 106.066 15.36 106.162 15.136C106.274 14.896 106.33 14.536 106.33 14.056V2.944C106.33 2.4 106.258 2.032 106.114 1.84C105.97 1.648 105.674 1.552 105.226 1.552ZM127.224 12.184C127.224 12.152 127.256 12.136 127.32 12.136C127.368 12.136 127.408 12.152 127.44 12.184C127.488 12.2 127.512 12.216 127.512 12.232C127.352 13.48 127.272 14.616 127.272 15.64C127.272 15.768 127.248 15.864 127.2 15.928C127.152 15.976 127.056 16 126.912 16H116.304C116.256 16 116.232 15.952 116.232 15.856C116.232 15.76 116.256 15.712 116.304 15.712C116.816 15.712 117.184 15.672 117.408 15.592C117.648 15.512 117.808 15.36 117.888 15.136C117.968 14.896 118.008 14.536 118.008 14.056V2.944C118.008 2.464 117.968 2.112 117.888 1.888C117.808 1.664 117.648 1.512 117.408 1.432C117.168 1.336 116.8 1.288 116.304 1.288C116.256 1.288 116.232 1.24 116.232 1.144C116.232 1.048 116.256 1 116.304 1H126.48C126.64 1 126.72 1.072 126.72 1.216L126.768 4.408C126.768 4.44 126.72 4.464 126.624 4.48C126.544 4.496 126.496 4.48 126.48 4.432C126.224 3.504 125.792 2.816 125.184 2.368C124.576 1.92 123.776 1.696 122.784 1.696H122.064C121.584 1.696 121.232 1.8 121.008 2.008C120.784 2.216 120.672 2.536 120.672 2.968V7.864H122.664C123.592 7.864 124.304 7.704 124.8 7.384C125.296 7.064 125.544 6.616 125.544 6.04C125.544 5.992 125.584 5.968 125.664 5.968C125.76 5.968 125.808 5.992 125.808 6.04L125.784 8.2L125.808 9.352C125.84 9.896 125.856 10.328 125.856 10.648C125.856 10.68 125.808 10.696 125.712 10.696C125.616 10.696 125.568 10.68 125.568 10.648C125.568 9.992 125.312 9.48 124.8 9.112C124.304 8.728 123.584 8.536 122.64 8.536H120.672V13.96C120.672 14.424 120.76 14.768 120.936 14.992C121.112 15.216 121.392 15.328 121.776 15.328H122.568C123.816 15.328 124.816 15.072 125.568 14.56C126.32 14.048 126.872 13.256 127.224 12.184ZM145.771 15.712C145.851 15.712 145.891 15.76 145.891 15.856C145.891 15.952 145.851 16 145.771 16C145.451 16 144.955 15.984 144.283 15.952C143.579 15.92 143.075 15.904 142.771 15.904C142.371 15.904 141.883 15.92 141.307 15.952C140.763 15.984 140.331 16 140.011 16C139.947 16 139.915 15.952 139.915 15.856C139.915 15.76 139.947 15.712 140.011 15.712C140.427 15.712 140.723 15.672 140.898 15.592C141.091 15.496 141.187 15.336 141.187 15.112C141.187 14.84 141.027 14.384 140.707 13.744L135.955 4.36L132.235 12.592C132.027 13.056 131.923 13.488 131.923 13.888C131.923 14.464 132.123 14.912 132.523 15.232C132.939 15.552 133.491 15.712 134.179 15.712C134.259 15.712 134.299 15.76 134.299 15.856C134.299 15.952 134.259 16 134.179 16C133.891 16 133.475 15.984 132.931 15.952C132.323 15.92 131.795 15.904 131.347 15.904C130.915 15.904 130.395 15.92 129.787 15.952C129.243 15.984 128.803 16 128.466 16C128.402 16 128.37 15.952 128.37 15.856C128.37 15.76 128.402 15.712 128.466 15.712C128.915 15.712 129.291 15.624 129.595 15.448C129.899 15.256 130.203 14.928 130.507 14.464C130.811 13.984 131.171 13.28 131.587 12.352L136.795 0.904C136.827 0.855999 136.899 0.831999 137.011 0.831999C137.139 0.831999 137.211 0.855999 137.227 0.904L143.227 12.712C143.787 13.848 144.251 14.632 144.619 15.064C144.987 15.496 145.371 15.712 145.771 15.712ZM163.334 15.712C163.382 15.712 163.406 15.76 163.406 15.856C163.406 15.952 163.382 16 163.334 16C162.774 16 162.326 15.992 161.99 15.976L160.142 15.952L157.982 15.976C157.694 15.992 157.302 16 156.806 16C156.758 16 156.734 15.952 156.734 15.856C156.734 15.76 156.758 15.712 156.806 15.712C157.398 15.712 157.83 15.672 158.102 15.592C158.374 15.512 158.558 15.36 158.654 15.136C158.75 14.912 158.798 14.552 158.798 14.056V4.24L149.198 16.264C149.15 16.312 149.03 16.336 148.838 16.336C148.534 16.336 148.382 16.28 148.382 16.168V2.944C148.382 2.464 148.334 2.112 148.238 1.888C148.142 1.664 147.966 1.512 147.71 1.432C147.454 1.336 147.054 1.288 146.51 1.288C146.462 1.288 146.438 1.24 146.438 1.144C146.438 1.048 146.462 1 146.51 1L147.854 1.024C148.654 1.056 149.27 1.072 149.702 1.072C150.342 1.072 151.062 1.056 151.862 1.024L153.038 1C153.086 1 153.11 1.048 153.11 1.144C153.11 1.24 153.086 1.288 153.038 1.288C152.446 1.288 152.014 1.336 151.742 1.432C151.47 1.512 151.286 1.664 151.19 1.888C151.094 2.112 151.046 2.464 151.046 2.944V12.856L160.646 0.831999C160.694 0.783999 160.814 0.759999 161.006 0.759999C161.118 0.759999 161.222 0.775999 161.318 0.808C161.414 0.839999 161.462 0.879999 161.462 0.927999V14.056C161.462 14.536 161.51 14.896 161.606 15.136C161.702 15.36 161.878 15.512 162.134 15.592C162.39 15.672 162.79 15.712 163.334 15.712Z" fill="url(#paint0_linear_76_131)"/>
<defs>
<linearGradient id="paint0_linear_76_131" x1="2.12814" y1="8.27659" x2="165" y2="8.27659" gradientUnits="userSpaceOnUse">
<stop stop-color="#C1AD64"/>
<stop offset="0.34375" stop-color="#A98343"/>
<stop offset="0.536458" stop-color="#A27C3D"/>
<stop offset="0.875" stop-color="#C4B067"/>
</linearGradient>
</defs>
</svg>
