<svg width="147" height="21" viewBox="0 0 147 21" fill="none" xmlns="http://www.w3.org/2000/svg">
<path d="M17.256 15.712C17.304 15.712 17.328 15.76 17.328 15.856C17.328 15.952 17.304 16 17.256 16C16.712 16 16.28 15.992 15.96 15.976L14.208 15.952L12.216 15.976C11.88 15.992 11.432 16 10.872 16C10.824 16 10.8 15.952 10.8 15.856C10.8 15.76 10.824 15.712 10.872 15.712C11.416 15.712 11.816 15.672 12.072 15.592C12.328 15.512 12.496 15.36 12.576 15.136C12.672 14.896 12.72 14.536 12.72 14.056V3.232C12.72 2.688 12.696 2.328 12.648 2.152C12.616 1.976 12.528 1.864 12.384 1.816C12.24 1.768 11.952 1.744 11.52 1.744H6.6C6.12 1.744 5.8 1.768 5.64 1.816C5.48 1.864 5.376 1.976 5.328 2.152C5.296 2.328 5.28 2.688 5.28 3.232V14.056C5.28 14.552 5.32 14.912 5.4 15.136C5.496 15.36 5.664 15.512 5.904 15.592C6.16 15.672 6.568 15.712 7.128 15.712C7.176 15.712 7.2 15.76 7.2 15.856C7.2 15.952 7.176 16 7.128 16C6.568 16 6.12 15.992 5.784 15.976L3.792 15.952L2.016 15.976C1.696 15.992 1.264 16 0.72 16C0.688 16 0.672 15.952 0.672 15.856C0.672 15.76 0.688 15.712 0.72 15.712C1.28 15.712 1.688 15.672 1.944 15.592C2.2 15.512 2.376 15.36 2.472 15.136C2.568 14.896 2.616 14.536 2.616 14.056V3.232C2.616 2.512 2.496 2.008 2.256 1.72C2.016 1.432 1.52 1.288 0.768 1.288C0.72 1.288 0.696 1.24 0.696 1.144C0.696 1.048 0.72 1 0.768 1C1.312 1 1.84 1.008 2.352 1.024C4.496 1.056 6.744 1.072 9.096 1.072C11.224 1.072 13.68 1.048 16.464 1H17.256C17.304 1 17.328 1.048 17.328 1.144C17.328 1.24 17.304 1.288 17.256 1.288C16.504 1.288 16 1.432 15.744 1.72C15.504 2.008 15.384 2.512 15.384 3.232V14.056C15.384 14.536 15.432 14.896 15.528 15.136C15.624 15.36 15.8 15.512 16.056 15.592C16.312 15.672 16.712 15.712 17.256 15.712ZM23.2074 13.96C23.2074 14.472 23.2634 14.848 23.3754 15.088C23.4874 15.312 23.6954 15.472 23.9994 15.568C24.3194 15.664 24.8234 15.712 25.5114 15.712C25.5594 15.712 25.5834 15.76 25.5834 15.856C25.5834 15.952 25.5594 16 25.5114 16C24.8554 16 24.3434 15.992 23.9754 15.976L21.8874 15.952L20.1354 15.976C19.8154 15.992 19.3834 16 18.8394 16C18.7914 16 18.7674 15.952 18.7674 15.856C18.7674 15.76 18.7914 15.712 18.8394 15.712C19.3514 15.712 19.7194 15.672 19.9434 15.592C20.1834 15.512 20.3434 15.36 20.4234 15.136C20.5034 14.896 20.5434 14.536 20.5434 14.056V2.944C20.5434 2.464 20.5034 2.112 20.4234 1.888C20.3434 1.664 20.1834 1.512 19.9434 1.432C19.7034 1.336 19.3354 1.288 18.8394 1.288C18.7914 1.288 18.7674 1.24 18.7674 1.144C18.7674 1.048 18.7914 1 18.8394 1L20.1114 1.024C20.8474 1.056 21.4314 1.072 21.8634 1.072C22.2474 1.072 22.7034 1.048 23.2314 1C23.4394 0.983999 23.7034 0.967999 24.0234 0.951999C24.3434 0.935999 24.7114 0.927999 25.1274 0.927999C26.7594 0.927999 28.0474 1.272 28.9914 1.96C29.9354 2.632 30.4074 3.68 30.4074 5.104C30.4074 6.096 30.1514 6.936 29.6394 7.624C29.1274 8.312 28.4634 8.832 27.6474 9.184C26.8474 9.536 26.0234 9.712 25.1754 9.712C24.7434 9.712 24.3674 9.672 24.0474 9.592C24.0154 9.592 23.9994 9.552 23.9994 9.472C23.9994 9.424 24.0074 9.376 24.0234 9.328C24.0554 9.28 24.0874 9.264 24.1194 9.28C24.3594 9.344 24.6314 9.376 24.9354 9.376C25.6714 9.376 26.2794 9.032 26.7594 8.344C27.2554 7.656 27.5034 6.68 27.5034 5.416C27.5034 4.152 27.2314 3.176 26.6874 2.488C26.1594 1.8 25.3834 1.456 24.3594 1.456C23.9114 1.456 23.6074 1.56 23.4474 1.768C23.2874 1.976 23.2074 2.384 23.2074 2.992V13.96ZM40.0731 16.288C38.5851 16.288 37.2571 15.944 36.0891 15.256C34.9371 14.552 34.0411 13.608 33.4011 12.424C32.7771 11.224 32.4651 9.92 32.4651 8.512C32.4651 6.864 32.8811 5.456 33.7131 4.288C34.5451 3.104 35.6091 2.216 36.9051 1.624C38.2171 1.032 39.5531 0.735999 40.9131 0.735999C42.4331 0.735999 43.7691 1.096 44.9211 1.816C46.0731 2.52 46.9531 3.456 47.5611 4.624C48.1851 5.792 48.4971 7.032 48.4971 8.344C48.4971 9.8 48.1131 11.136 47.3451 12.352C46.5771 13.568 45.5451 14.528 44.2491 15.232C42.9691 15.936 41.5771 16.288 40.0731 16.288ZM40.8651 15.688C41.7611 15.688 42.5611 15.432 43.2651 14.92C43.9851 14.392 44.5451 13.632 44.9451 12.64C45.3451 11.632 45.5451 10.432 45.5451 9.04C45.5451 7.568 45.3211 6.256 44.8731 5.104C44.4251 3.936 43.7771 3.024 42.9291 2.368C42.0811 1.712 41.0891 1.384 39.9531 1.384C38.4971 1.384 37.3771 1.936 36.5931 3.04C35.8091 4.128 35.4171 5.656 35.4171 7.624C35.4171 9.176 35.6491 10.568 36.1131 11.8C36.5931 13.016 37.2411 13.968 38.0571 14.656C38.8891 15.344 39.8251 15.688 40.8651 15.688ZM65.9428 15.352C66.0868 15.352 66.1668 15.368 66.1828 15.4C66.2148 15.416 66.2308 15.496 66.2308 15.64C66.2308 15.704 66.2148 15.928 66.1828 16.312C66.0548 17.384 65.9908 18.592 65.9908 19.936C65.9908 20.016 65.9428 20.056 65.8468 20.056C65.7668 20.056 65.7268 20.016 65.7268 19.936C65.7268 18.656 65.2628 17.68 64.3348 17.008C63.4228 16.336 62.1028 16 60.3748 16H55.0468C53.5268 16 52.3588 16.336 51.5428 17.008C50.7428 17.68 50.3428 18.656 50.3428 19.936C50.3428 20.016 50.2948 20.056 50.1988 20.056C50.1028 20.056 50.0548 20.016 50.0548 19.936C50.0548 18.592 49.9988 17.456 49.8868 16.528C49.8388 16.224 49.8148 15.928 49.8148 15.64C49.8148 15.512 49.8228 15.432 49.8388 15.4C49.8708 15.368 49.9428 15.352 50.0548 15.352H51.6868L57.6868 0.904C57.7188 0.855999 57.7988 0.831999 57.9268 0.831999C58.0548 0.831999 58.1268 0.855999 58.1428 0.904L64.7668 15.352H65.9428ZM52.4548 15.352H61.7908L56.8708 4.624L52.4548 15.352ZM80.4872 1C80.5352 1 80.5592 1.048 80.5592 1.144C80.5592 1.24 80.5352 1.288 80.4872 1.288C80.0232 1.288 79.5432 1.496 79.0472 1.912C78.5512 2.312 78.1512 2.856 77.8472 3.544L73.7672 12.592C73.3992 13.424 73.1032 14.192 72.8792 14.896C72.7352 15.328 72.6152 15.624 72.5192 15.784C72.4232 15.928 72.2872 16 72.1112 16H67.5512C67.5192 16 67.5032 15.952 67.5032 15.856C67.5032 15.76 67.5192 15.712 67.5512 15.712C68.6072 15.712 69.6632 15.416 70.7192 14.824C71.7912 14.216 72.5672 13.44 73.0472 12.496L67.7432 2.992C67.3752 2.336 67.0632 1.888 66.8072 1.648C66.5512 1.408 66.1992 1.288 65.7512 1.288C65.7192 1.288 65.7032 1.24 65.7032 1.144C65.7032 1.048 65.7192 1 65.7512 1C66.1032 1 66.3512 1.008 66.4952 1.024C66.9752 1.056 67.5992 1.072 68.3672 1.072C69.5032 1.072 70.4392 1.056 71.1752 1.024C71.3832 1.008 71.6312 1 71.9192 1C71.9512 1 71.9672 1.048 71.9672 1.144C71.9672 1.24 71.9512 1.288 71.9192 1.288C70.9112 1.288 70.4072 1.528 70.4072 2.008C70.4072 2.232 70.4872 2.48 70.6472 2.752L74.3912 9.568L77.1272 3.544C77.2872 3.176 77.3672 2.864 77.3672 2.608C77.3672 2.208 77.2152 1.888 76.9112 1.648C76.6072 1.408 76.1912 1.288 75.6632 1.288C75.6312 1.288 75.6152 1.24 75.6152 1.144C75.6152 1.048 75.6312 1 75.6632 1L76.7432 1.024C77.3512 1.056 77.8952 1.072 78.3752 1.072C78.7272 1.072 79.0952 1.056 79.4792 1.024L80.4872 1ZM96.5912 15.712C96.6392 15.712 96.6632 15.76 96.6632 15.856C96.6632 15.952 96.6392 16 96.5912 16H92.8952C92.6872 16 92.4952 15.936 92.3192 15.808C92.1592 15.68 91.8712 15.352 91.4552 14.824C91.0392 14.28 90.3592 13.328 89.4152 11.968L88.7672 11.056C88.2072 10.24 87.7912 9.672 87.5192 9.352C87.2472 9.016 86.9592 8.784 86.6552 8.656C86.3672 8.512 85.9832 8.44 85.5032 8.44V14.056C85.5032 14.536 85.5432 14.896 85.6232 15.136C85.7192 15.36 85.8952 15.512 86.1512 15.592C86.4072 15.672 86.8072 15.712 87.3512 15.712C87.3992 15.712 87.4232 15.76 87.4232 15.856C87.4232 15.952 87.3992 16 87.3512 16C86.7912 16 86.3432 15.992 86.0072 15.976L84.0152 15.952L82.2632 15.976C81.9432 15.992 81.5112 16 80.9672 16C80.9192 16 80.8952 15.952 80.8952 15.856C80.8952 15.76 80.9192 15.712 80.9672 15.712C81.5112 15.712 81.9112 15.672 82.1672 15.592C82.4232 15.512 82.5992 15.36 82.6952 15.136C82.7912 14.896 82.8392 14.536 82.8392 14.056V2.944C82.8392 2.464 82.7912 2.112 82.6952 1.888C82.5992 1.664 82.4232 1.512 82.1672 1.432C81.9272 1.336 81.5352 1.288 80.9912 1.288C80.9432 1.288 80.9192 1.24 80.9192 1.144C80.9192 1.048 80.9432 1 80.9912 1L82.2632 1.024C82.9992 1.056 83.5832 1.072 84.0152 1.072C84.5592 1.072 85.2312 1.056 86.0312 1.024L87.3512 1C87.3992 1 87.4232 1.048 87.4232 1.144C87.4232 1.24 87.3992 1.288 87.3512 1.288C86.8232 1.288 86.4312 1.336 86.1752 1.432C85.9192 1.528 85.7432 1.696 85.6472 1.936C85.5512 2.16 85.5032 2.512 85.5032 2.992V8.032C85.9352 8.016 86.4792 8.008 87.1352 8.008L89.6552 4.552C90.3112 3.64 90.6392 2.88 90.6392 2.272C90.6392 1.968 90.5512 1.728 90.3752 1.552C90.1992 1.376 89.9592 1.288 89.6552 1.288C89.6232 1.288 89.6072 1.24 89.6072 1.144C89.6072 1.048 89.6232 1 89.6552 1L90.7592 1.024C91.4632 1.056 92.0872 1.072 92.6312 1.072C93.2552 1.072 93.9032 1.056 94.5752 1.024L95.6072 1C95.6552 1 95.6792 1.048 95.6792 1.144C95.6792 1.24 95.6552 1.288 95.6072 1.288C94.9032 1.288 94.1112 1.544 93.2312 2.056C92.3512 2.568 91.6072 3.208 90.9992 3.976L87.7352 8.032C88.3592 8.064 88.8712 8.184 89.2712 8.392C89.6712 8.584 90.0632 8.896 90.4472 9.328C90.8472 9.76 91.4072 10.48 92.1272 11.488L92.5592 12.088C93.2312 13.016 93.7512 13.712 94.1192 14.176C94.5032 14.64 94.8952 15.008 95.2952 15.28C95.6952 15.552 96.1272 15.696 96.5912 15.712ZM112.863 20.488C112.863 19.032 112.511 17.92 111.807 17.152C111.103 16.384 110.087 16 108.759 16H97.095C97.063 16 97.047 15.952 97.047 15.856C97.047 15.76 97.063 15.712 97.095 15.712C97.655 15.712 98.063 15.672 98.319 15.592C98.575 15.512 98.751 15.36 98.847 15.136C98.943 14.896 98.991 14.536 98.991 14.056V2.944C98.991 2.464 98.943 2.112 98.847 1.888C98.751 1.664 98.575 1.512 98.319 1.432C98.063 1.336 97.655 1.288 97.095 1.288C97.063 1.288 97.047 1.24 97.047 1.144C97.047 1.048 97.063 1 97.095 1L98.391 1.024C99.127 1.056 99.719 1.072 100.167 1.072C100.711 1.072 101.399 1.056 102.231 1.024L103.647 1C103.679 1 103.695 1.048 103.695 1.144C103.695 1.24 103.679 1.288 103.647 1.288C103.055 1.288 102.623 1.336 102.351 1.432C102.079 1.512 101.895 1.664 101.799 1.888C101.703 2.112 101.655 2.464 101.655 2.944V14.008C101.655 14.552 101.671 14.912 101.703 15.088C101.751 15.264 101.847 15.376 101.991 15.424C102.135 15.472 102.423 15.496 102.855 15.496H107.343C107.823 15.496 108.143 15.472 108.303 15.424C108.463 15.376 108.559 15.264 108.591 15.088C108.639 14.912 108.663 14.552 108.663 14.008V2.944C108.663 2.464 108.615 2.112 108.519 1.888C108.423 1.664 108.239 1.512 107.967 1.432C107.695 1.336 107.263 1.288 106.671 1.288C106.639 1.288 106.623 1.24 106.623 1.144C106.623 1.048 106.639 1 106.671 1L108.087 1.024C108.919 1.056 109.607 1.072 110.151 1.072C110.599 1.072 111.191 1.056 111.927 1.024L113.223 1C113.255 1 113.271 1.048 113.271 1.144C113.271 1.24 113.255 1.288 113.223 1.288C112.663 1.288 112.255 1.336 111.999 1.432C111.743 1.512 111.567 1.664 111.471 1.888C111.375 2.112 111.327 2.464 111.327 2.944V14.056C111.327 14.648 111.351 15.048 111.399 15.256C111.463 15.448 111.583 15.576 111.759 15.64C111.951 15.688 112.327 15.712 112.887 15.712C113.015 15.712 113.095 15.728 113.127 15.76C113.175 15.792 113.199 15.872 113.199 16C113.199 16.368 113.191 16.672 113.175 16.912C113.143 17.808 113.127 19 113.127 20.488C113.127 20.568 113.079 20.608 112.983 20.608C112.903 20.608 112.863 20.568 112.863 20.488ZM131.615 15.712C131.663 15.712 131.687 15.76 131.687 15.856C131.687 15.952 131.663 16 131.615 16C131.055 16 130.607 15.992 130.271 15.976L128.423 15.952L126.263 15.976C125.975 15.992 125.583 16 125.087 16C125.039 16 125.015 15.952 125.015 15.856C125.015 15.76 125.039 15.712 125.087 15.712C125.679 15.712 126.111 15.672 126.383 15.592C126.655 15.512 126.839 15.36 126.935 15.136C127.031 14.912 127.079 14.552 127.079 14.056V4.24L117.479 16.264C117.431 16.312 117.311 16.336 117.119 16.336C116.815 16.336 116.663 16.28 116.663 16.168V2.944C116.663 2.464 116.615 2.112 116.519 1.888C116.423 1.664 116.247 1.512 115.991 1.432C115.735 1.336 115.335 1.288 114.791 1.288C114.743 1.288 114.719 1.24 114.719 1.144C114.719 1.048 114.743 1 114.791 1L116.135 1.024C116.935 1.056 117.551 1.072 117.983 1.072C118.623 1.072 119.343 1.056 120.143 1.024L121.319 1C121.367 1 121.391 1.048 121.391 1.144C121.391 1.24 121.367 1.288 121.319 1.288C120.727 1.288 120.295 1.336 120.023 1.432C119.751 1.512 119.567 1.664 119.471 1.888C119.375 2.112 119.327 2.464 119.327 2.944V12.856L128.927 0.831999C128.975 0.783999 129.095 0.759999 129.287 0.759999C129.399 0.759999 129.503 0.775999 129.599 0.808C129.695 0.839999 129.743 0.879999 129.743 0.927999V14.056C129.743 14.536 129.791 14.896 129.887 15.136C129.983 15.36 130.159 15.512 130.415 15.592C130.671 15.672 131.071 15.712 131.615 15.712ZM146.559 15.712C146.591 15.712 146.607 15.76 146.607 15.856C146.607 15.952 146.591 16 146.559 16C145.983 16 145.527 15.992 145.191 15.976L143.343 15.952L141.543 15.976C141.239 15.992 140.823 16 140.295 16C140.247 16 140.223 15.952 140.223 15.856C140.223 15.76 140.247 15.712 140.295 15.712C140.807 15.712 141.175 15.672 141.399 15.592C141.639 15.512 141.799 15.36 141.879 15.136C141.959 14.912 141.999 14.552 141.999 14.056V8.296C141.407 8.424 140.847 8.752 140.319 9.28C139.807 9.808 139.199 10.704 138.495 11.968C137.679 13.392 137.103 14.368 136.767 14.896C136.447 15.424 136.223 15.744 136.095 15.856C135.967 15.952 135.791 16 135.567 16H132.423C132.391 16 132.375 15.952 132.375 15.856C132.375 15.76 132.391 15.712 132.423 15.712C132.919 15.696 133.319 15.528 133.623 15.208C133.927 14.888 134.343 14.272 134.871 13.36L136.023 11.488C136.663 10.416 137.311 9.648 137.967 9.184C138.623 8.704 139.399 8.384 140.295 8.224C138.743 8.08 137.559 7.696 136.743 7.072C135.927 6.448 135.519 5.632 135.519 4.624C135.519 3.904 135.735 3.264 136.167 2.704C136.615 2.144 137.223 1.712 137.991 1.408C138.759 1.088 139.623 0.927999 140.583 0.927999C140.935 0.927999 141.351 0.952 141.831 1C142.023 1.016 142.247 1.032 142.503 1.048C142.759 1.064 143.039 1.072 143.343 1.072C143.839 1.072 144.455 1.056 145.191 1.024L146.559 1C146.591 1 146.607 1.048 146.607 1.144C146.607 1.24 146.591 1.288 146.559 1.288C145.967 1.288 145.543 1.336 145.287 1.432C145.031 1.512 144.863 1.664 144.783 1.888C144.703 2.096 144.663 2.448 144.663 2.944V14.056C144.663 14.552 144.703 14.912 144.783 15.136C144.863 15.36 145.031 15.512 145.287 15.592C145.543 15.672 145.967 15.712 146.559 15.712ZM138.279 4.024C138.279 5.176 138.567 6.088 139.143 6.76C139.719 7.432 140.559 7.768 141.663 7.768H141.999V2.992C141.999 1.824 141.511 1.24 140.535 1.24C139.031 1.24 138.279 2.168 138.279 4.024Z" fill="url(#paint0_linear_76_180)"/>
<defs>
<linearGradient id="paint0_linear_76_180" x1="2.78895" y1="8.27659" x2="148" y2="8.27659" gradientUnits="userSpaceOnUse">
<stop stop-color="#C1AD64"/>
<stop offset="0.34375" stop-color="#A98343"/>
<stop offset="0.536458" stop-color="#A27C3D"/>
<stop offset="0.875" stop-color="#C4B067"/>
</linearGradient>
</defs>
</svg>
