<svg width="406" height="44" viewBox="0 0 406 44" fill="none" xmlns="http://www.w3.org/2000/svg">
<g filter="url(#filter0_d_76_126)">
<path d="M61.265 34.34C61.375 34.34 61.43 34.45 61.43 34.67C61.43 34.89 61.375 35 61.265 35H52.795C52.355 35 51.9517 34.8533 51.585 34.56C51.255 34.2667 50.6317 33.4967 49.715 32.25C48.835 30.9667 47.4233 28.8033 45.48 25.76C43.9033 23.2667 42.675 21.4883 41.795 20.425C40.915 19.3617 40.0533 18.6467 39.21 18.28C38.3667 17.8767 37.2483 17.675 35.855 17.675V30.545C35.855 31.645 35.9467 32.47 36.13 33.02C36.35 33.5333 36.7533 33.8817 37.34 34.065C37.9267 34.2483 38.8617 34.34 40.145 34.34C40.2183 34.34 40.255 34.45 40.255 34.67C40.255 34.89 40.2183 35 40.145 35C38.7883 35 37.725 34.9817 36.955 34.945L32.555 34.89L28.54 34.945C27.8433 34.9817 26.8533 35 25.57 35C25.4967 35 25.46 34.89 25.46 34.67C25.46 34.45 25.4967 34.34 25.57 34.34C26.8533 34.34 27.7883 34.2483 28.375 34.065C28.9617 33.8817 29.365 33.5333 29.585 33.02C29.805 32.47 29.915 31.645 29.915 30.545V17.675C28.5217 17.675 27.4033 17.8767 26.56 18.28C25.7167 18.6467 24.855 19.3617 23.975 20.425C23.095 21.4883 21.8667 23.2667 20.29 25.76C18.3467 28.8033 16.9167 30.9667 16 32.25C15.12 33.4967 14.4967 34.2667 14.13 34.56C13.8 34.8533 13.415 35 12.975 35H4.505C4.395 35 4.34 34.89 4.34 34.67C4.34 34.45 4.395 34.34 4.505 34.34C5.495 34.3033 6.41167 33.9733 7.255 33.35C8.09833 32.7267 8.92333 31.9017 9.73 30.875C10.5367 29.8117 11.71 28.1617 13.25 25.925L14.075 24.66C15.4317 22.6433 16.5683 21.1033 17.485 20.04C18.4383 18.9767 19.3733 18.2067 20.29 17.73C21.2067 17.2533 22.3067 16.9417 23.59 16.795L16 7.445C14.35 5.42833 12.6267 3.90666 10.83 2.88C9.07 1.81666 7.27333 1.285 5.44 1.285C5.36667 1.285 5.33 1.175 5.33 0.954999C5.33 0.735 5.36667 0.625 5.44 0.625L7.805 0.679999C9.345 0.753332 10.83 0.789998 12.26 0.789998C13.36 0.789998 14.8633 0.753332 16.77 0.679999L20.4 0.625C20.4733 0.625 20.51 0.735 20.51 0.954999C20.51 1.175 20.4733 1.285 20.4 1.285C19.3367 1.285 18.53 1.52333 17.98 2C17.4667 2.44 17.21 3.06333 17.21 3.87C17.21 5.3 18.035 7.18833 19.685 9.535L24.855 16.685H26.175C27.6783 16.685 28.925 16.7033 29.915 16.74V5.08C29.915 3.98 29.805 3.17333 29.585 2.66C29.365 2.14666 28.9617 1.79833 28.375 1.615C27.7883 1.395 26.8717 1.285 25.625 1.285C25.5517 1.285 25.515 1.175 25.515 0.954999C25.515 0.735 25.5517 0.625 25.625 0.625L28.65 0.679999C30.2633 0.753332 31.565 0.789998 32.555 0.789998C33.6917 0.789998 35.1767 0.753332 37.01 0.679999L40.145 0.625C40.2183 0.625 40.255 0.735 40.255 0.954999C40.255 1.175 40.2183 1.285 40.145 1.285C38.8983 1.285 37.9817 1.395 37.395 1.615C36.8083 1.835 36.405 2.22 36.185 2.77C35.965 3.28333 35.855 4.09 35.855 5.19V16.74C36.8083 16.7033 38.055 16.685 39.595 16.685H40.915L45.92 9.81C47.6433 7.42667 48.505 5.44667 48.505 3.87C48.505 3.06333 48.2483 2.44 47.735 2C47.2217 1.52333 46.4517 1.285 45.425 1.285C45.315 1.285 45.26 1.175 45.26 0.954999C45.26 0.735 45.315 0.625 45.425 0.625L49 0.679999C50.9067 0.753332 52.41 0.789998 53.51 0.789998C54.94 0.789998 56.425 0.753332 57.965 0.679999L60.33 0.625C60.4033 0.625 60.44 0.735 60.44 0.954999C60.44 1.175 60.4033 1.285 60.33 1.285C58.4967 1.285 56.6817 1.81666 54.885 2.88C53.125 3.90666 51.42 5.42833 49.77 7.445L42.18 16.795C43.5 16.9417 44.6 17.2533 45.48 17.73C46.3967 18.2067 47.3133 18.9767 48.23 20.04C49.1467 21.0667 50.3017 22.6067 51.695 24.66L52.52 25.925C54.06 28.1617 55.2333 29.8117 56.04 30.875C56.8467 31.9017 57.6717 32.7267 58.515 33.35C59.3583 33.9733 60.275 34.3033 61.265 34.34ZM101.067 34.34C101.177 34.34 101.232 34.45 101.232 34.67C101.232 34.89 101.177 35 101.067 35C99.7836 35 98.757 34.9817 97.987 34.945L93.752 34.89L88.802 34.945C88.142 34.9817 87.2436 35 86.107 35C85.997 35 85.942 34.89 85.942 34.67C85.942 34.45 85.997 34.34 86.107 34.34C87.4636 34.34 88.4536 34.2483 89.077 34.065C89.7003 33.8817 90.122 33.5333 90.342 33.02C90.562 32.5067 90.672 31.6817 90.672 30.545V8.05L68.672 35.605C68.562 35.715 68.287 35.77 67.847 35.77C67.1503 35.77 66.802 35.6417 66.802 35.385V5.08C66.802 3.98 66.692 3.17333 66.472 2.66C66.252 2.14666 65.8486 1.79833 65.262 1.615C64.6753 1.395 63.7586 1.285 62.512 1.285C62.402 1.285 62.347 1.175 62.347 0.954999C62.347 0.735 62.402 0.625 62.512 0.625L65.592 0.679999C67.4253 0.753332 68.837 0.789998 69.827 0.789998C71.2936 0.789998 72.9436 0.753332 74.777 0.679999L77.472 0.625C77.582 0.625 77.637 0.735 77.637 0.954999C77.637 1.175 77.582 1.285 77.472 1.285C76.1153 1.285 75.1253 1.395 74.502 1.615C73.8786 1.79833 73.457 2.14666 73.237 2.66C73.017 3.17333 72.907 3.98 72.907 5.08V27.795L94.907 0.239998C95.017 0.129998 95.292 0.0749972 95.732 0.0749972C95.9886 0.0749972 96.227 0.111665 96.447 0.184999C96.667 0.258331 96.777 0.349998 96.777 0.459999V30.545C96.777 31.645 96.887 32.47 97.107 33.02C97.327 33.5333 97.7303 33.8817 98.317 34.065C98.9036 34.2483 99.8203 34.34 101.067 34.34ZM122.608 15.695C125.688 16.0617 128.126 17.0883 129.923 18.775C131.756 20.4617 132.673 22.5517 132.673 25.045C132.673 26.9517 132.123 28.675 131.023 30.215C129.923 31.755 128.401 32.9833 126.458 33.9C124.514 34.78 122.351 35.22 119.968 35.22C118.941 35.22 117.768 35.165 116.448 35.055C115.934 35.0183 115.293 34.9817 114.523 34.945C113.789 34.9083 112.964 34.89 112.048 34.89L108.033 34.945C107.299 34.9817 106.309 35 105.063 35C104.953 35 104.898 34.89 104.898 34.67C104.898 34.45 104.953 34.34 105.063 34.34C106.126 34.34 106.933 34.2483 107.483 34.065C108.033 33.845 108.418 33.4783 108.638 32.965C108.894 32.415 109.023 31.6083 109.023 30.545V5.08C109.023 3.54 108.766 2.53167 108.253 2.055C107.739 1.54166 106.694 1.285 105.118 1.285C105.044 1.285 105.008 1.175 105.008 0.954999C105.008 0.735 105.044 0.625 105.118 0.625L108.033 0.679999C109.719 0.753332 111.058 0.789998 112.048 0.789998C113.074 0.789998 114.138 0.734999 115.238 0.625C115.604 0.588332 116.154 0.551664 116.888 0.514998C117.621 0.478332 118.263 0.459999 118.813 0.459999C122.149 0.459999 124.734 1.065 126.568 2.275C128.401 3.485 129.318 5.245 129.318 7.555C129.318 9.315 128.731 10.91 127.558 12.34C126.421 13.77 124.771 14.8883 122.608 15.695ZM117.988 1.67C116.924 1.67 116.191 1.92667 115.788 2.44C115.384 2.91666 115.183 3.83333 115.183 5.19V15.64L117.383 15.695C119.289 15.695 120.756 14.98 121.783 13.55C122.809 12.12 123.323 10.2867 123.323 8.05C123.323 5.96 122.864 4.38333 121.948 3.32C121.031 2.22 119.711 1.67 117.988 1.67ZM119.033 33.845C123.836 33.845 126.238 31.3517 126.238 26.365C126.238 23.5417 125.559 21.305 124.203 19.655C122.846 18.005 120.793 17.18 118.043 17.18C116.979 17.18 116.026 17.2167 115.183 17.29V30.545C115.183 31.755 115.421 32.6167 115.898 33.13C116.374 33.6067 117.419 33.845 119.033 33.845ZM174.953 34.34C175.136 34.34 175.228 34.45 175.228 34.67C175.228 34.89 175.136 35 174.953 35C174.219 35 173.083 34.9633 171.543 34.89C169.929 34.8167 168.774 34.78 168.078 34.78C167.161 34.78 166.043 34.8167 164.723 34.89C163.476 34.9633 162.486 35 161.753 35C161.606 35 161.533 34.89 161.533 34.67C161.533 34.45 161.606 34.34 161.753 34.34C162.706 34.34 163.384 34.2483 163.788 34.065C164.228 33.845 164.448 33.4783 164.448 32.965C164.448 32.3417 164.081 31.2967 163.348 29.83L159.608 22.405H146.078L143.933 27.19C143.456 28.2533 143.218 29.2433 143.218 30.16C143.218 31.48 143.676 32.5067 144.593 33.24C145.546 33.9733 146.811 34.34 148.388 34.34C148.571 34.34 148.663 34.45 148.663 34.67C148.663 34.89 148.571 35 148.388 35C147.728 35 146.774 34.9633 145.528 34.89C144.134 34.8167 142.924 34.78 141.898 34.78C140.908 34.78 139.716 34.8167 138.323 34.89C137.076 34.9633 136.068 35 135.298 35C135.151 35 135.078 34.89 135.078 34.67C135.078 34.45 135.151 34.34 135.298 34.34C136.324 34.34 137.186 34.1383 137.883 33.735C138.579 33.295 139.276 32.5433 139.973 31.48C140.669 30.38 141.494 28.7667 142.448 26.64L154.383 0.405C154.456 0.294999 154.621 0.239998 154.878 0.239998C155.171 0.239998 155.336 0.294999 155.373 0.405L169.123 27.465C170.406 30.0683 171.469 31.865 172.313 32.855C173.156 33.845 174.036 34.34 174.953 34.34ZM146.793 20.865H158.783L152.458 8.325L146.793 20.865ZM207.393 34.34C207.466 34.34 207.503 34.45 207.503 34.67C207.503 34.89 207.466 35 207.393 35C206.073 35 205.028 34.9817 204.258 34.945L200.023 34.89L195.898 34.945C195.201 34.9817 194.248 35 193.038 35C192.928 35 192.873 34.89 192.873 34.67C192.873 34.45 192.928 34.34 193.038 34.34C194.211 34.34 195.054 34.2483 195.568 34.065C196.118 33.8817 196.484 33.5333 196.668 33.02C196.851 32.5067 196.943 31.6817 196.943 30.545V17.345C195.586 17.6383 194.303 18.39 193.093 19.6C191.919 20.81 190.526 22.8633 188.913 25.76C187.043 29.0233 185.723 31.26 184.953 32.47C184.219 33.68 183.706 34.4133 183.413 34.67C183.119 34.89 182.716 35 182.203 35H174.998C174.924 35 174.888 34.89 174.888 34.67C174.888 34.45 174.924 34.34 174.998 34.34C176.134 34.3033 177.051 33.9183 177.748 33.185C178.444 32.4517 179.398 31.04 180.608 28.95L183.248 24.66C184.714 22.2033 186.199 20.4433 187.703 19.38C189.206 18.28 190.984 17.5467 193.038 17.18C189.481 16.85 186.768 15.97 184.898 14.54C183.028 13.11 182.093 11.24 182.093 8.93C182.093 7.28 182.588 5.81333 183.578 4.53C184.604 3.24666 185.998 2.25666 187.758 1.56C189.518 0.826665 191.498 0.459999 193.698 0.459999C194.504 0.459999 195.458 0.514999 196.558 0.625C196.998 0.661666 197.511 0.698332 198.098 0.734999C198.684 0.771665 199.326 0.789998 200.023 0.789998C201.159 0.789998 202.571 0.753332 204.258 0.679999L207.393 0.625C207.466 0.625 207.503 0.735 207.503 0.954999C207.503 1.175 207.466 1.285 207.393 1.285C206.036 1.285 205.064 1.395 204.478 1.615C203.891 1.79833 203.506 2.14666 203.323 2.66C203.139 3.13666 203.048 3.94333 203.048 5.08V30.545C203.048 31.6817 203.139 32.5067 203.323 33.02C203.506 33.5333 203.891 33.8817 204.478 34.065C205.064 34.2483 206.036 34.34 207.393 34.34ZM188.418 7.555C188.418 10.195 189.078 12.285 190.398 13.825C191.718 15.365 193.643 16.135 196.173 16.135H196.943V5.19C196.943 2.51333 195.824 1.175 193.588 1.175C190.141 1.175 188.418 3.30167 188.418 7.555ZM238.602 16.52C241.682 16.74 244.176 17.6383 246.082 19.215C247.989 20.755 248.942 22.7533 248.942 25.21C248.942 27.19 248.301 28.9867 247.017 30.6C245.734 32.1767 244.011 33.4233 241.847 34.34C239.684 35.22 237.319 35.66 234.752 35.66C233.102 35.66 231.526 35.4767 230.022 35.11C228.519 34.7433 227.364 34.23 226.557 33.57C226.227 33.3867 226.026 33.24 225.952 33.13C225.879 32.9833 225.824 32.7083 225.787 32.305L225.127 24.88C225.127 24.8067 225.219 24.7517 225.402 24.715C225.622 24.6783 225.751 24.715 225.787 24.825C226.081 26.695 226.722 28.4 227.712 29.94C228.739 31.4433 229.986 32.635 231.452 33.515C232.919 34.3583 234.459 34.78 236.072 34.78C238.016 34.78 239.482 33.955 240.472 32.305C241.499 30.6183 242.012 28.565 242.012 26.145C242.012 23.175 241.224 20.9383 239.647 19.435C238.107 17.895 235.907 17.125 233.047 17.125C232.901 17.125 232.827 17.015 232.827 16.795C232.827 16.575 232.901 16.465 233.047 16.465C235.687 16.465 237.649 15.7683 238.932 14.375C240.252 12.9817 240.912 11.02 240.912 8.49C240.912 5.96 240.472 4.035 239.592 2.715C238.749 1.395 237.484 0.734999 235.797 0.734999C234.551 0.734999 233.304 1.175 232.057 2.055C230.811 2.89833 229.711 4.07166 228.757 5.575C227.804 7.07833 227.089 8.765 226.612 10.635C226.576 10.745 226.466 10.7817 226.282 10.745C226.099 10.7083 226.007 10.6533 226.007 10.58L226.777 2.77C226.851 2.33 226.924 2.03666 226.997 1.89C227.071 1.74333 227.272 1.615 227.602 1.505C230.426 0.514998 233.359 0.019998 236.402 0.019998C238.822 0.019998 240.857 0.368331 242.507 1.065C244.157 1.725 245.386 2.62333 246.192 3.76C247.036 4.86 247.457 6.07 247.457 7.39C247.457 9.48 246.559 11.3683 244.762 13.055C242.966 14.7417 240.912 15.8967 238.602 16.52ZM279.135 26.255C279.135 26.1817 279.209 26.145 279.355 26.145C279.465 26.145 279.557 26.1817 279.63 26.255C279.74 26.2917 279.795 26.3283 279.795 26.365C279.429 29.225 279.245 31.8283 279.245 34.175C279.245 34.4683 279.19 34.6883 279.08 34.835C278.97 34.945 278.75 35 278.42 35H254.11C254 35 253.945 34.89 253.945 34.67C253.945 34.45 254 34.34 254.11 34.34C255.284 34.34 256.127 34.2483 256.64 34.065C257.19 33.8817 257.557 33.5333 257.74 33.02C257.924 32.47 258.015 31.645 258.015 30.545V5.08C258.015 3.98 257.924 3.17333 257.74 2.66C257.557 2.14666 257.19 1.79833 256.64 1.615C256.09 1.395 255.247 1.285 254.11 1.285C254 1.285 253.945 1.175 253.945 0.954999C253.945 0.735 254 0.625 254.11 0.625H277.43C277.797 0.625 277.98 0.789999 277.98 1.12L278.09 8.435C278.09 8.50833 277.98 8.56333 277.76 8.6C277.577 8.63667 277.467 8.6 277.43 8.49C276.844 6.36333 275.854 4.78667 274.46 3.76C273.067 2.73333 271.234 2.22 268.96 2.22H267.31C266.21 2.22 265.404 2.45833 264.89 2.935C264.377 3.41166 264.12 4.145 264.12 5.135V16.355H268.685C270.812 16.355 272.444 15.9883 273.58 15.255C274.717 14.5217 275.285 13.495 275.285 12.175C275.285 12.065 275.377 12.01 275.56 12.01C275.78 12.01 275.89 12.065 275.89 12.175L275.835 17.125L275.89 19.765C275.964 21.0117 276 22.0017 276 22.735C276 22.8083 275.89 22.845 275.67 22.845C275.45 22.845 275.34 22.8083 275.34 22.735C275.34 21.2317 274.754 20.0583 273.58 19.215C272.444 18.335 270.794 17.895 268.63 17.895H264.12V30.325C264.12 31.3883 264.322 32.1767 264.725 32.69C265.129 33.2033 265.77 33.46 266.65 33.46H268.465C271.325 33.46 273.617 32.8733 275.34 31.7C277.064 30.5267 278.329 28.7117 279.135 26.255ZM328.017 34.34C328.09 34.34 328.127 34.45 328.127 34.67C328.127 34.89 328.09 35 328.017 35C326.77 35 325.78 34.9817 325.047 34.945L320.977 34.89L316.852 34.945C316.155 34.9817 315.202 35 313.992 35C313.882 35 313.827 34.89 313.827 34.67C313.827 34.45 313.882 34.34 313.992 34.34C315.532 34.34 316.577 34.1567 317.127 33.79C317.677 33.4233 317.952 32.6533 317.952 31.48L317.897 30.545L316.742 8.05L305.412 34.615C305.339 34.7617 305.192 34.835 304.972 34.835C304.752 34.835 304.605 34.7617 304.532 34.615L290.617 8.16L290.177 28.015C290.14 29.995 290.525 31.5533 291.332 32.69C292.175 33.79 293.349 34.34 294.852 34.34C294.962 34.34 295.017 34.45 295.017 34.67C295.017 34.89 294.962 35 294.852 35C293.862 35 293.092 34.9817 292.542 34.945L289.517 34.89L286.052 34.945C285.465 34.9817 284.677 35 283.687 35C283.577 35 283.522 34.89 283.522 34.67C283.522 34.45 283.577 34.34 283.687 34.34C285.19 34.34 286.382 33.7717 287.262 32.635C288.142 31.4983 288.6 29.9583 288.637 28.015L289.132 5.245L289.077 5.19C288.344 3.83333 287.574 2.84333 286.767 2.22C285.997 1.59667 285.099 1.285 284.072 1.285C283.962 1.285 283.907 1.175 283.907 0.954999C283.907 0.735 283.962 0.625 284.072 0.625L286.657 0.679999C287.17 0.716665 287.83 0.734999 288.637 0.734999L291.552 0.679999C291.882 0.643333 292.304 0.625 292.817 0.625C293.294 0.625 293.66 0.789999 293.917 1.12C294.174 1.45 294.65 2.23833 295.347 3.485L307.337 25.98L317.787 2C318.007 1.48667 318.227 1.13833 318.447 0.954999C318.704 0.735 319.034 0.625 319.437 0.625C319.767 0.625 320.134 0.643333 320.537 0.679999C320.977 0.716665 321.472 0.734999 322.022 0.734999L325.267 0.679999C325.78 0.643333 326.514 0.625 327.467 0.625C327.577 0.625 327.632 0.735 327.632 0.954999C327.632 1.175 327.577 1.285 327.467 1.285C325.744 1.285 324.497 1.63333 323.727 2.33C322.957 3.02666 322.609 4.10833 322.682 5.575L324.002 30.545C324.075 31.6817 324.204 32.5067 324.387 33.02C324.607 33.5333 324.974 33.8817 325.487 34.065C326.037 34.2483 326.88 34.34 328.017 34.34ZM368.795 34.34C368.979 34.34 369.07 34.45 369.07 34.67C369.07 34.89 368.979 35 368.795 35C368.062 35 366.925 34.9633 365.385 34.89C363.772 34.8167 362.617 34.78 361.92 34.78C361.004 34.78 359.885 34.8167 358.565 34.89C357.319 34.9633 356.329 35 355.595 35C355.449 35 355.375 34.89 355.375 34.67C355.375 34.45 355.449 34.34 355.595 34.34C356.549 34.34 357.227 34.2483 357.63 34.065C358.07 33.845 358.29 33.4783 358.29 32.965C358.29 32.3417 357.924 31.2967 357.19 29.83L346.3 8.325L337.775 27.19C337.299 28.2533 337.06 29.2433 337.06 30.16C337.06 31.48 337.519 32.5067 338.435 33.24C339.389 33.9733 340.654 34.34 342.23 34.34C342.414 34.34 342.505 34.45 342.505 34.67C342.505 34.89 342.414 35 342.23 35C341.57 35 340.617 34.9633 339.37 34.89C337.977 34.8167 336.767 34.78 335.74 34.78C334.75 34.78 333.559 34.8167 332.165 34.89C330.919 34.9633 329.91 35 329.14 35C328.994 35 328.92 34.89 328.92 34.67C328.92 34.45 328.994 34.34 329.14 34.34C330.167 34.34 331.029 34.1383 331.725 33.735C332.422 33.295 333.119 32.5433 333.815 31.48C334.512 30.38 335.337 28.7667 336.29 26.64L348.225 0.405C348.299 0.294999 348.464 0.239998 348.72 0.239998C349.014 0.239998 349.179 0.294999 349.215 0.405L362.965 27.465C364.249 30.0683 365.312 31.865 366.155 32.855C366.999 33.845 367.879 34.34 368.795 34.34ZM401.235 34.34C401.309 34.34 401.345 34.45 401.345 34.67C401.345 34.89 401.309 35 401.235 35C399.915 35 398.87 34.9817 398.1 34.945L393.865 34.89L389.74 34.945C389.044 34.9817 388.09 35 386.88 35C386.77 35 386.715 34.89 386.715 34.67C386.715 34.45 386.77 34.34 386.88 34.34C388.054 34.34 388.897 34.2483 389.41 34.065C389.96 33.8817 390.327 33.5333 390.51 33.02C390.694 32.5067 390.785 31.6817 390.785 30.545V17.345C389.429 17.6383 388.145 18.39 386.935 19.6C385.762 20.81 384.369 22.8633 382.755 25.76C380.885 29.0233 379.565 31.26 378.795 32.47C378.062 33.68 377.549 34.4133 377.255 34.67C376.962 34.89 376.559 35 376.045 35H368.84C368.767 35 368.73 34.89 368.73 34.67C368.73 34.45 368.767 34.34 368.84 34.34C369.977 34.3033 370.894 33.9183 371.59 33.185C372.287 32.4517 373.24 31.04 374.45 28.95L377.09 24.66C378.557 22.2033 380.042 20.4433 381.545 19.38C383.049 18.28 384.827 17.5467 386.88 17.18C383.324 16.85 380.61 15.97 378.74 14.54C376.87 13.11 375.935 11.24 375.935 8.93C375.935 7.28 376.43 5.81333 377.42 4.53C378.447 3.24666 379.84 2.25666 381.6 1.56C383.36 0.826665 385.34 0.459999 387.54 0.459999C388.347 0.459999 389.3 0.514999 390.4 0.625C390.84 0.661666 391.354 0.698332 391.94 0.734999C392.527 0.771665 393.169 0.789998 393.865 0.789998C395.002 0.789998 396.414 0.753332 398.1 0.679999L401.235 0.625C401.309 0.625 401.345 0.735 401.345 0.954999C401.345 1.175 401.309 1.285 401.235 1.285C399.879 1.285 398.907 1.395 398.32 1.615C397.734 1.79833 397.349 2.14666 397.165 2.66C396.982 3.13666 396.89 3.94333 396.89 5.08V30.545C396.89 31.6817 396.982 32.5067 397.165 33.02C397.349 33.5333 397.734 33.8817 398.32 34.065C398.907 34.2483 399.879 34.34 401.235 34.34ZM382.26 7.555C382.26 10.195 382.92 12.285 384.24 13.825C385.56 15.365 387.485 16.135 390.015 16.135H390.785V5.19C390.785 2.51333 389.667 1.175 387.43 1.175C383.984 1.175 382.26 3.30167 382.26 7.555Z" fill="url(#paint0_linear_76_126)"/>
</g>
<defs>
<filter id="filter0_d_76_126" x="0.339844" y="0.0200195" width="405.006" height="43.75" filterUnits="userSpaceOnUse" color-interpolation-filters="sRGB">
<feFlood flood-opacity="0" result="BackgroundImageFix"/>
<feColorMatrix in="SourceAlpha" type="matrix" values="0 0 0 0 0 0 0 0 0 0 0 0 0 0 0 0 0 0 127 0" result="hardAlpha"/>
<feOffset dy="4"/>
<feGaussianBlur stdDeviation="2"/>
<feComposite in2="hardAlpha" operator="out"/>
<feColorMatrix type="matrix" values="0 0 0 0 0 0 0 0 0 0 0 0 0 0 0 0 0 0 0.25 0"/>
<feBlend mode="normal" in2="BackgroundImageFix" result="effect1_dropShadow_76_126"/>
<feBlend mode="normal" in="SourceGraphic" in2="effect1_dropShadow_76_126" result="shape"/>
</filter>
<linearGradient id="paint0_linear_76_126" x1="12.5" y1="17" x2="403" y2="17" gradientUnits="userSpaceOnUse">
<stop stop-color="#C1AD64"/>
<stop offset="0.34375" stop-color="#A98343"/>
<stop offset="0.536458" stop-color="#A27C3D"/>
<stop offset="0.875" stop-color="#C4B067"/>
</linearGradient>
</defs>
</svg>
